<svg width="1425.562548828125px" height="142.39999999999998px" xmlns="http://www.w3.org/2000/svg" viewBox="-462.7812744140625 3.8000000000000114 1425.562548828125 142.39999999999998" style="background: rgba(0, 0, 0, 0);" preserveAspectRatio="xMidYMid"><defs><linearGradient id="editing-shiny-gradient" x1="0.04322727117869957" x2="0.9567727288213004" y1="0.2966316784620999" y2="0.7033683215379001" gradientUnits="objectBoundingBox"><stop offset="0.0" stop-color="#ffb200"></stop><stop offset="0.5" stop-color="#e10057"></stop><stop offset="1.0" stop-color="#5A1A80"></stop></linearGradient><linearGradient id="editing-shiny-gradient2" x1="0" x2="0" y1="0" y2="1"><stop offset="0.2" stop-color="#fff" stop-opacity="0.8"></stop><stop offset="0.8" stop-color="#fff" stop-opacity="0"></stop></linearGradient><filter id="editing-shiny2" x="-100%" y="-100%" width="300%" height="300%"><feMorphology operator="erode" radius="2"></feMorphology></filter><filter id="editing-shiny" x="-100%" y="-100%" width="300%" height="300%"><feFlood flood-color="#fff" result="flood"></feFlood><feConvolveMatrix in="SourceGraphic" result="conv" order="8,8" divisor="1" kernelMatrix="0 0 0 0 0 0 0 0 0 0 0 1 1 0 0 0 0 0 0 1 1 0 0 0 0 0 1 0 0 1 0 0 0 0 1 0 0 1 0 0 0 1 0 0 0 0 1 0 0 1 1 0 0 1 1 0 0 0 0 1 1 0 0 0 "></feConvolveMatrix><feOffset dx="0" dy="4" in="conv" result="offset"></feOffset><feComposite operator="in" in="flood" in2="offset" result="comp"></feComposite><feGaussianBlur in="offset" stdDeviation="3" result="shadow"></feGaussianBlur><feColorMatrix in="shadow" type="matrix" values="0.7 0 0 0 0  0 0.7 0 0 0  0 0 0.7 0 0  0 0 0 0.3 0" result="dark-shadow"></feColorMatrix><feOffset dx="0" dy="4" in="dark-shadow" result="offset-shadow"></feOffset><feOffset dx="0" dy="2" in="conv" result="offset-2"></feOffset><feComposite operator="out" in="offset" in2="offset-2" result="edge-diff"></feComposite><feGaussianBlur in="edge-diff" stdDeviation="1" result="edge-blur"></feGaussianBlur><feColorMatrix in="edge-blur" result="edge-shadow" type="matrix" values="0 0 0 0 0  0 0 0 0 0  0 0 0 0 0  0 0 0 0.5 0"></feColorMatrix><feComposite operator="in" in="edge-shadow" in2="offset" result="edge-shadow-in"></feComposite><feOffset dx="0" dy="1" in="edge-shadow-in" result="edge-shadow-final"></feOffset><feMerge result="out"><feMergeNode in="offset-shadow"></feMergeNode><feMergeNode in="comp"></feMergeNode><feMergeNode in="edge-shadow-final"></feMergeNode><feMergeNode in="SourceGraphic"></feMergeNode></feMerge></filter></defs><g filter="url(#editing-shiny)"><g transform="translate(-266.8149975538254, 110.30823135375977)"><path d="M6.56-35.31L6.56-1L6.56-1Q6.56 0.06 5.06 0.06L5.06 0.06L5.06 0.06Q3.94 0.06 2.38-1L2.38-1L2.38-1Q1.63-2.69 1.63-9.06L1.63-9.06L1.63-9.06Q1.63-15.44 1.75-19.59L1.75-19.59L1.75-19.59Q1.88-23.75 2-27.25L2-27.25L2-27.25Q2.38-34.88 2.38-35.31L2.38-35.31L2.38-35.31Q4.19-36.38 5.38-36.38L5.38-36.38L5.38-36.38Q6.56-36.38 6.56-35.31L6.56-35.31ZM66.38-0.88L66.38-0.88L66.38-0.88Q65.81 0.19 63.47 0.19L63.47 0.19L63.47 0.19Q61.13 0.19 61.13-1.50L61.13-1.50L61.13-1.50Q61.13-8.88 60.81-11.63L60.81-11.63L60.81-11.63Q60.25-17.69 58.44-18.13L58.44-18.13L58.44-18.13Q53.94-19 51.09-19L51.09-19L51.09-19Q48.25-19 46.41-17.28L46.41-17.28L46.41-17.28Q44.56-15.56 43.59-11.59L43.59-11.59L43.59-11.59Q42.63-7.63 42.19-0.44L42.19-0.44L37.38-0.44L37.38-0.44Q37.50-4 37.50-7.06L37.50-7.06L37.50-7.06Q37.50-10.13 37.38-14.34L37.38-14.34L37.38-14.34Q37.25-18.56 37.06-23.56L37.06-23.56L37.06-23.56Q36.75-29.31 36.75-33.28L36.75-33.28L36.75-33.28Q36.75-37.25 37.25-40.56L37.25-40.56L37.25-40.56Q37.88-41.75 39.06-41.75L39.06-41.75L39.06-41.75Q40.50-41.75 41.31-40.72L41.31-40.72L41.31-40.72Q42.13-39.69 42.19-38.88L42.19-38.88L41.88-28.56L41.88-28.56Q41.88-22.75 42.44-19.88L42.44-19.88L42.44-19.88Q48.06-23.63 54.06-23.63L54.06-23.63L54.06-23.63Q56-23.63 58.19-23.31L58.19-23.31L58.19-23.31Q62.88-20.88 64.31-18.13L64.31-18.13L64.31-18.13Q65-16.69 65.19-15.06L65.19-15.06L65.19-15.06Q65.38-13.44 65.44-11.38L65.44-11.38L65.44-11.38Q65.81-4.25 66.38-0.88ZM93.25-10.38L93.25-10.38L93.25-10.38Q88.56-3 80.75-1.25L80.75-1.25L80.75-1.25Q78.94-0.88 77.47-0.88L77.47-0.88L77.47-0.88Q76-0.88 75.03-0.91L75.03-0.91L75.03-0.91Q74.06-0.94 72.88-1.19L72.88-1.19L72.88-1.19Q71.69-1.44 70.69-2L70.69-2L70.69-2Q68.38-3.31 68.38-5.69L68.38-5.69L68.38-5.69Q68.13-6.81 68.13-8.22L68.13-8.22L68.13-8.22Q68.13-9.63 68.75-11.94L68.75-11.94L68.75-11.94Q69.38-14.25 71.03-16.94L71.03-16.94L71.03-16.94Q72.69-19.63 75.06-21.88L75.06-21.88L75.06-21.88Q80-26.63 85.75-28L85.75-28L85.75-28Q87.44-28.38 88.84-28.38L88.84-28.38L88.84-28.38Q90.25-28.38 91.38-28.19L91.38-28.19L91.38-28.19Q95-28.19 96.25-23.25L96.25-23.25L96.25-23.25Q97.06-20.13 97.22-14.53L97.22-14.53L97.22-14.53Q97.38-8.94 97.53-5.91L97.53-5.91L97.53-5.91Q97.69-2.88 98.31-0.38L98.31-0.38L94.63-0.38L94.63-0.38Q94.38-2.06 94.25-3.38L94.25-3.38L94.25-3.38Q94.13-4.69 94-5.81L94-5.81L94-5.81Q93.69-8.44 93.25-10.38ZM93-20.06L93-20.06L93-20.06Q93-23.69 89.44-23.69L89.44-23.69L89.44-23.69Q89-23.75 88.56-23.75L88.56-23.75L88.56-23.75Q84-23.75 78.94-19.38L78.94-19.38L78.94-19.38Q76.56-17.38 74.88-14.88L74.88-14.88L74.88-14.88Q72.38-11.31 72.38-8.50L72.38-8.50L72.38-8.50Q72.38-4.81 76.63-4.13L76.63-4.13L76.63-4.13Q82.25-4.25 87.38-9.25L87.38-9.25L87.38-9.25Q89.56-11.44 91-14L91-14L91-14Q93-17.44 93-20.06ZM101.81-24.19L101.81-24.19L101.81-24.19Q101.69-24.50 101.69-24.91L101.69-24.91L101.69-24.91Q101.69-25.31 102-26L102-26L102-26Q102.31-26.69 102.91-27.19L102.91-27.19L102.91-27.19Q103.50-27.69 104.22-27.66L104.22-27.66L104.22-27.66Q104.94-27.63 105.38-26.75L105.38-26.75L115.88-7.25L115.88-7.25Q116.38-8 117.47-10.03L117.47-10.03L117.47-10.03Q118.56-12.06 119.97-14.63L119.97-14.63L119.97-14.63Q121.38-17.19 122.91-19.97L122.91-19.97L122.91-19.97Q124.44-22.75 125.75-25.06L125.75-25.06L125.75-25.06Q128.75-30.38 129.31-30.38L129.31-30.38L129.31-30.38Q130.63-30.38 131.22-29.41L131.22-29.41L131.22-29.41Q131.81-28.44 131.81-27.94L131.81-27.94L131.81-27.94Q131.81-27.44 131.81-27.25L131.81-27.25L131.81-27.25Q128.31-19.63 125.34-13.19L125.34-13.19L125.34-13.19Q122.38-6.75 121.41-4.84L121.41-4.84L121.41-4.84Q120.44-2.94 119.69-1.81L119.69-1.81L119.69-1.81Q118.38 0.13 117.13 0.13L117.13 0.13L117.13 0.13Q115.88 0.13 114.25-1.84L114.25-1.84L114.25-1.84Q112.63-3.81 110.56-7.13L110.56-7.13L110.56-7.13Q106.94-13.13 101.81-24.19ZM147.19-4.38L147.19-4.38L147.19-4.38Q152.69-4.38 163.75-9.38L163.75-9.38L163.75-9.38Q164.44-9.38 164.88-8.91L164.88-8.91L164.88-8.91Q165.31-8.44 165.31-7.81L165.31-7.81L165.31-7.81Q162.81-3.56 155.75-1.19L155.75-1.19L155.75-1.19Q148.69 1.19 142.56-0.38L142.56-0.38L142.56-0.38Q135.63-2.19 134.13-8.19L134.13-8.19L134.13-8.19Q134-9.38 134-11.38L134-11.38L134-11.38Q134-13.38 135.03-16.66L135.03-16.66L135.03-16.66Q136.06-19.94 138.56-22.88L138.56-22.88L138.56-22.88Q141.06-25.81 144.44-27.50L144.44-27.50L144.44-27.50Q147.81-29.19 151.63-29.19L151.63-29.19L151.63-29.19Q155.25-29.19 159.75-26.69L159.75-26.69L159.75-26.69Q161.88-25.50 163.13-24L163.13-24L163.13-24Q164.38-22.50 164.38-20.94L164.38-20.94L164.38-20.94Q164.38-20.50 164.31-20.06L164.31-20.06L164.31-20.06Q164.19-16.25 160.63-15.25L160.63-15.25L160.63-15.25Q159.06-14.81 157-14.81L157-14.81L148-15.19L148-15.19Q143.50-15.19 141.13-13.25L141.13-13.25L141.13-13.25Q139.75-12.19 139.19-10.06L139.19-10.06L139.19-10.06Q140.75-4.38 147.19-4.38ZM158.34-23.69L158.34-23.69L158.34-23.69Q156.94-24.69 155.44-25.13L155.44-25.13L155.44-25.13Q153.94-25.56 152.94-25.56L152.94-25.56L152.94-25.56Q151.94-25.56 149.69-24.91L149.69-24.91L149.69-24.91Q147.44-24.25 145.69-23.44L145.69-23.44L145.69-23.44Q141.38-21.44 141.38-19.25L141.38-19.25L141.38-19.25Q146.38-18.81 148.88-18.81L148.88-18.81L148.88-18.81Q155.81-18.81 158.25-20L158.25-20L158.25-20Q159.75-20.63 159.75-21.56L159.75-21.56L159.75-21.56Q159.75-22.69 158.34-23.69ZM216.06-16.13L216.06-16.13L216.06-16.13Q222.94-16.13 222.94-12.63L222.94-12.63L222.94-12.63Q222.94-10 219.13-6.50L219.13-6.50L219.13-6.50Q213.44-1.31 203.81 1.81L203.81 1.81L203.81 1.81Q203.38 1.81 202.84 0.94L202.84 0.94L202.84 0.94Q202.31 0.06 202.03-0.41L202.03-0.41L202.03-0.41Q201.75-0.88 201.63-1L201.63-1L201.63-1Q208.81-3.38 213.44-6.75L213.44-6.75L213.44-6.75Q216.56-9 216.56-10.44L216.56-10.44L216.56-10.44Q216.56-11.88 212.88-11.88L212.88-11.88L212.88-11.88Q209.19-11.88 202.06-10.13L202.06-10.13L202.06-10.13Q198.81-10.25 196.44-12.44L196.44-12.44L196.44-12.44Q194.38-14.38 194.38-16.34L194.38-16.34L194.38-16.34Q194.38-18.31 195.50-19.97L195.50-19.97L195.50-19.97Q196.63-21.63 198.50-23.06L198.50-23.06L198.50-23.06Q200.38-24.50 202.88-25.69L202.88-25.69L202.88-25.69Q209-28.63 215.56-28.63L215.56-28.63L215.56-28.63Q217.50-28.63 219.31-28.25L219.31-28.25L219.31-28.25Q220.81-28.25 221.06-26.94L221.06-26.94L221.06-26.94Q221.31-25.63 221.31-22.63L221.31-22.63L221.31-22.63Q217.63-24.31 213-24.31L213-24.31L213-24.31Q207.25-24.31 203.50-22L203.50-22L203.50-22Q199.63-19.75 199.50-16.13L199.50-16.13L199.50-16.13Q199.50-14.38 202.06-14.38L202.06-14.38L206.63-14.88L206.63-14.88Q212.50-16.13 216.06-16.13ZM228.38-11.88L228.38-11.88L228.38-11.88Q228.38-19.25 234.75-23.75L234.75-23.75L234.75-23.75Q239.81-27.31 246.94-28.06L246.94-28.06L246.94-28.06Q247.31-28.06 248.69-28.06L248.69-28.06L248.69-28.06Q250.06-28.06 252.38-27.25L252.38-27.25L252.38-27.25Q257.50-25.50 259.38-21.06L259.38-21.06L259.38-21.06Q260.13-19.31 260.13-18.09L260.13-18.09L260.13-18.09Q260.13-16.88 260.06-16.38L260.06-16.38L260.06-16.38Q260.06-8.56 254.13-4.06L254.13-4.06L254.13-4.06Q248.63 0.06 240.38 0.06L240.38 0.06L240.38 0.06Q234.44 0.06 231.41-2.69L231.41-2.69L231.41-2.69Q228.38-5.44 228.38-11.88ZM232.69-10.38L232.69-10.38L232.69-10.38Q232.69-6.50 234.75-5.13L234.75-5.13L234.75-5.13Q236.31-4.13 240-4.13L240-4.13L240-4.13Q243.69-4.13 246.50-4.69L246.50-4.69L246.50-4.69Q249.31-5.25 251.50-6.63L251.50-6.63L251.50-6.63Q256.19-9.63 256.19-15.94L256.19-15.94L256.19-15.94Q256.19-19.69 254.19-22.06L254.19-22.06L254.19-22.06Q252-24.63 248.44-24.63L248.44-24.63L248.44-24.63Q246-24.19 243.53-23.69L243.53-23.69L243.53-23.69Q241.06-23.19 238.88-21.75L238.88-21.75L238.88-21.75Q234.13-18.69 232.69-10.38ZM268-1L268-1L268-1Q265.44 0.06 264.59 0.06L264.59 0.06L264.59 0.06Q263.75 0.06 263.44-0.13L263.44-0.13L263.44-0.13Q263.13-0.31 262.75-1L262.75-1L262.75-1Q262.75-3.06 262.91-6.19L262.91-6.19L262.91-6.19Q263.06-9.31 263.19-12.88L263.19-12.88L263.19-12.88Q263.31-16.44 263.31-20.06L263.31-20.06L263.31-20.06Q263.31-23.69 262.94-26.69L262.94-26.69L262.94-26.69Q262.94-28.69 265.63-28.69L265.63-28.69L265.63-28.69Q266.25-28.69 266.59-26.44L266.59-26.44L266.59-26.44Q266.94-24.19 267.09-22.94L267.09-22.94L267.09-22.94Q267.25-21.69 267.38-21.13L267.38-21.13L267.38-21.13Q269-24.06 273.81-25.75L273.81-25.75L273.81-25.75Q276.38-26.56 278.63-26.56L278.63-26.56L278.63-26.56Q280.88-26.56 282.59-26.03L282.59-26.03L282.59-26.03Q284.31-25.50 285.53-24.09L285.53-24.09L285.53-24.09Q286.75-22.69 286.75-20.38L286.75-20.38L286.75-20.38Q288.38-23.44 294.06-25.88L294.06-25.88L294.06-25.88Q299.25-28.19 303.38-28.19L303.38-28.19L303.38-28.19Q309.31-28.19 309.19-23.69L309.19-23.69L310.50-0.44L310.50-0.44Q310.50-0.13 308.69 0L308.69 0L308.69 0Q305.19 0.25 305.19-0.63L305.19-0.63L305.19-0.63Q305.13-1.88 305.13-3.13L305.13-3.13L305.44-13.19L305.44-13.19Q305.44-20.25 304.06-24.38L304.06-24.38L304.06-24.38Q299.94-24.06 297.72-23.03L297.72-23.03L297.72-23.03Q295.50-22 293.81-20.47L293.81-20.47L293.81-20.47Q292.13-18.94 290.81-16.38L290.81-16.38L290.81-16.38Q287.88-10.63 287.88-1.13L287.88-1.13L287.88-1.13Q287.50 0.19 285.44 0.19L285.44 0.19L285.44 0.19Q284.06 0.19 283.19-0.28L283.19-0.28L283.19-0.28Q282.31-0.75 282.50-1.13L282.50-1.13L282.50-1.13Q283.69-7.75 283.69-11.44L283.69-11.44L283.69-11.44Q283.69-14.38 283.09-17.03L283.09-17.03L283.09-17.03Q282.50-19.69 281.63-23.13L281.63-23.13L281.63-23.13Q272.63-23.13 269.50-15.94L269.50-15.94L269.50-15.94Q268.13-12.75 267.97-9.97L267.97-9.97L267.97-9.97Q267.81-7.19 267.81-5.22L267.81-5.22L267.81-5.22Q267.81-3.25 268-1ZM325.38-4.38L325.38-4.38L325.38-4.38Q330.88-4.38 341.94-9.38L341.94-9.38L341.94-9.38Q342.63-9.38 343.06-8.91L343.06-8.91L343.06-8.91Q343.50-8.44 343.50-7.81L343.50-7.81L343.50-7.81Q341-3.56 333.94-1.19L333.94-1.19L333.94-1.19Q326.88 1.19 320.75-0.38L320.75-0.38L320.75-0.38Q313.81-2.19 312.31-8.19L312.31-8.19L312.31-8.19Q312.19-9.38 312.19-11.38L312.19-11.38L312.19-11.38Q312.19-13.38 313.22-16.66L313.22-16.66L313.22-16.66Q314.25-19.94 316.75-22.88L316.75-22.88L316.75-22.88Q319.25-25.81 322.63-27.50L322.63-27.50L322.63-27.50Q326-29.19 329.81-29.19L329.81-29.19L329.81-29.19Q333.44-29.19 337.94-26.69L337.94-26.69L337.94-26.69Q340.06-25.50 341.31-24L341.31-24L341.31-24Q342.56-22.50 342.56-20.94L342.56-20.94L342.56-20.94Q342.56-20.50 342.50-20.06L342.50-20.06L342.50-20.06Q342.38-16.25 338.81-15.25L338.81-15.25L338.81-15.25Q337.25-14.81 335.19-14.81L335.19-14.81L326.19-15.19L326.19-15.19Q321.69-15.19 319.31-13.25L319.31-13.25L319.31-13.25Q317.94-12.19 317.38-10.06L317.38-10.06L317.38-10.06Q318.94-4.38 325.38-4.38ZM336.53-23.69L336.53-23.69L336.53-23.69Q335.13-24.69 333.63-25.13L333.63-25.13L333.63-25.13Q332.13-25.56 331.13-25.56L331.13-25.56L331.13-25.56Q330.13-25.56 327.88-24.91L327.88-24.91L327.88-24.91Q325.63-24.25 323.88-23.44L323.88-23.44L323.88-23.44Q319.56-21.44 319.56-19.25L319.56-19.25L319.56-19.25Q324.56-18.81 327.06-18.81L327.06-18.81L327.06-18.81Q334-18.81 336.44-20L336.44-20L336.44-20Q337.94-20.63 337.94-21.56L337.94-21.56L337.94-21.56Q337.94-22.69 336.53-23.69ZM356.69-6L356.69-6L356.81-16L356.81-16Q356.81-18.38 356.38-20.06L356.38-20.06L346.69-20.06L346.56-24.38L355.94-24.38L355.94-40.50L355.94-40.50Q356.13-41.06 356.69-41.63L356.69-41.63L356.69-41.63Q357.56-42.50 358.16-42.50L358.16-42.50L358.16-42.50Q358.75-42.50 359.19-42.38L359.19-42.38L359.19-42.38Q359.63-42.25 360.13-41.50L360.13-41.50L360.13-41.50Q361.13-37.38 361.13-29.06L361.13-29.06L361.13-29.06Q361.13-27 361.31-25L361.31-25L361.31-25Q363.31-25.25 365.31-25.25L365.31-25.25L365.31-25.25Q365.31-25.25 368.56-25.25L368.56-25.25L368.56-25.25Q369.75-25.25 370.75-25.38L370.75-25.38L370.56-20.88L361.44-21.13L361.75 0.44L361.75 0.44Q360.63 0.94 359.81 0.94L359.81 0.94L359.81 0.94Q356.69 0.94 356.69-6ZM402.50-0.88L402.50-0.88L402.50-0.88Q401.94 0.19 399.59 0.19L399.59 0.19L399.59 0.19Q397.25 0.19 397.25-1.50L397.25-1.50L397.25-1.50Q397.25-8.88 396.94-11.63L396.94-11.63L396.94-11.63Q396.38-17.69 394.56-18.13L394.56-18.13L394.56-18.13Q390.06-19 387.22-19L387.22-19L387.22-19Q384.38-19 382.53-17.28L382.53-17.28L382.53-17.28Q380.69-15.56 379.72-11.59L379.72-11.59L379.72-11.59Q378.75-7.63 378.31-0.44L378.31-0.44L373.50-0.44L373.50-0.44Q373.63-4 373.63-7.06L373.63-7.06L373.63-7.06Q373.63-10.13 373.50-14.34L373.50-14.34L373.50-14.34Q373.38-18.56 373.19-23.56L373.19-23.56L373.19-23.56Q372.88-29.31 372.88-33.28L372.88-33.28L372.88-33.28Q372.88-37.25 373.38-40.56L373.38-40.56L373.38-40.56Q374-41.75 375.19-41.75L375.19-41.75L375.19-41.75Q376.63-41.75 377.44-40.72L377.44-40.72L377.44-40.72Q378.25-39.69 378.31-38.88L378.31-38.88L378-28.56L378-28.56Q378-22.75 378.56-19.88L378.56-19.88L378.56-19.88Q384.19-23.63 390.19-23.63L390.19-23.63L390.19-23.63Q392.13-23.63 394.31-23.31L394.31-23.31L394.31-23.31Q399-20.88 400.44-18.13L400.44-18.13L400.44-18.13Q401.13-16.69 401.31-15.06L401.31-15.06L401.31-15.06Q401.50-13.44 401.56-11.38L401.56-11.38L401.56-11.38Q401.94-4.25 402.50-0.88ZM406.50-29.38L410.44-29.38L410.44-29.38Q411.25-17.69 411.81-2.31L411.81-2.31L411.81-2.31Q411.44-0.38 408.81-0.38L408.81-0.38L408.81-0.38Q408.13-0.38 407.41-0.66L407.41-0.66L407.41-0.66Q406.69-0.94 406.50-1.44L406.50-1.44L406.50-29.38ZM404.63-37.88L404.63-37.88L404.63-37.88Q404.63-40.06 407.19-40.06L407.19-40.06L407.19-40.06Q408.88-40.06 409.94-39.31L409.94-39.31L409.94-39.31Q410.13-38.63 410.13-37.97L410.13-37.97L410.13-37.97Q410.13-37.31 409.63-36.69L409.63-36.69L409.63-36.69Q409.13-36.06 408.13-36.06L408.13-36.06L408.13-36.06Q407.13-36.06 406.13-36.53L406.13-36.53L406.13-36.53Q405.13-37 404.63-37.88ZM438.81-9.88L438.88-13.69L438.88-13.69Q438.88-21.13 438.06-24.63L438.06-24.63L438.06-24.63Q438.56-25.56 436.56-25.56L436.56-25.56L436.56-25.56Q434.44-25.56 431.06-24.50L431.06-24.50L431.06-24.50Q427.69-23.44 425.56-22.38L425.56-22.38L425.56-22.38Q420.50-19.94 419.94-17.63L419.94-17.63L419.94-0.63L415.75-0.63L415.75-0.63Q414.94-2.75 414.94-12.56L414.94-12.56L414.94-12.56Q414.94-21.31 415.28-25.44L415.28-25.44L415.28-25.44Q415.63-29.56 415.81-30.13L415.81-30.13L415.81-30.13Q417.44-31.19 418.44-31.19L418.44-31.19L418.44-31.19Q420-31.19 420-27.50L420-27.50L420-27.50Q420-26.06 419.84-24.72L419.84-24.72L419.84-24.72Q419.69-23.38 419.69-22.88L419.69-22.88L419.69-22.88Q429.81-30.31 435.38-30.31L435.38-30.31L435.38-30.31Q441.69-30.31 442.56-20.13L442.56-20.13L442.56-20.13Q442.94-16.56 442.94-10.25L442.94-10.25L442.88-5.31L442.88-5.31Q442.88-2.56 443 0L443 0L443 0Q442.38 0.38 442 0.38L442 0.38L442 0.38Q441.81 0.31 441.19 0.19L441.19 0.19L441.19 0.19Q440.56 0.06 439.56 0L439.56 0L439.56 0Q438.94-2.50 438.88-5.09L438.88-5.09L438.88-5.09Q438.81-7.69 438.81-9.88L438.81-9.88ZM464.56 26.75L464.56 26.75L463.69 26.69L463.69 26.69Q461.81 26.69 459.69 26.94L459.69 26.94L457.31 26.94L457.31 26.94Q453.56 26.94 451.44 25.50L451.44 25.50L451.44 25.50Q450.31 24.75 450.31 23.25L450.31 23.25L464.69 22.56L464.69 22.56Q471.31 22.38 471.31 15.44L471.31 15.44L471.31 15.44Q471.31 15.19 471.31 14.59L471.31 14.59L471.31 14.59Q471.31 14 471.31 12L471.31 12L471.63-8.13L471.63-8.13Q471.63-9.19 471.56-9.88L471.56-9.88L471.56-9.88Q461.44-0.44 452.06-0.44L452.06-0.44L452.06-0.44Q451.25-0.44 450.44-0.50L450.44-0.50L450.44-0.50Q446.25-0.50 446.25-4.19L446.25-4.19L446.25-4.19Q446.38-7.06 447.94-10.53L447.94-10.53L447.94-10.53Q449.50-14 451.97-17.22L451.97-17.22L451.97-17.22Q454.44-20.44 457.56-23L457.56-23L457.56-23Q462.38-26.94 466.88-26.94L466.88-26.94L466.88-26.94Q472.13-26.94 475.50-21.38L475.50-21.38L475.50-21.38Q476.50-6.50 476.50-0.25L476.50-0.25L476.50-0.25Q476.50 6 476.31 10L476.31 10L476.31 10Q476.13 14 475.47 17.31L475.47 17.31L475.47 17.31Q474.81 20.63 473.75 22.56L473.75 22.56L473.75 22.56Q472.69 24.50 471.25 25.38L471.25 25.38L471.25 25.38Q468.88 26.75 464.56 26.75ZM468.31-22.38L468.31-22.38L468.31-22.38Q467.56-22.63 466.22-22.63L466.22-22.63L466.22-22.63Q464.88-22.63 462.75-21.50L462.75-21.50L462.75-21.50Q460.63-20.38 458.69-18.59L458.69-18.59L458.69-18.59Q456.75-16.81 455.06-14.63L455.06-14.63L455.06-14.63Q450.94-9.25 450.94-6.06L450.94-6.06L450.94-6.06Q450.94-5.06 451.50-4.56L451.50-4.56L451.50-4.56Q451.94-4.31 452.59-4.31L452.59-4.31L452.59-4.31Q453.25-4.31 454.50-4.53L454.50-4.53L454.50-4.53Q455.75-4.75 457.91-5.66L457.91-5.66L457.91-5.66Q460.06-6.56 462.38-8L462.38-8L462.38-8Q464.69-9.44 466.56-11.19L466.56-11.19L466.56-11.19Q470.94-15.19 470.94-19L470.94-19L470.94-19Q470.94-21.31 468.31-22.38ZM514.56-6L514.56-6L514.69-16L514.69-16Q514.69-18.38 514.25-20.06L514.25-20.06L504.56-20.06L504.44-24.38L513.81-24.38L513.81-40.50L513.81-40.50Q514-41.06 514.56-41.63L514.56-41.63L514.56-41.63Q515.44-42.50 516.03-42.50L516.03-42.50L516.03-42.50Q516.63-42.50 517.06-42.38L517.06-42.38L517.06-42.38Q517.50-42.25 518-41.50L518-41.50L518-41.50Q519-37.38 519-29.06L519-29.06L519-29.06Q519-27 519.19-25L519.19-25L519.19-25Q521.19-25.25 523.19-25.25L523.19-25.25L523.19-25.25Q523.19-25.25 526.44-25.25L526.44-25.25L526.44-25.25Q527.63-25.25 528.63-25.38L528.63-25.38L528.44-20.88L519.31-21.13L519.63 0.44L519.63 0.44Q518.50 0.94 517.69 0.94L517.69 0.94L517.69 0.94Q514.56 0.94 514.56-6ZM532.56-11.88L532.56-11.88L532.56-11.88Q532.56-19.25 538.94-23.75L538.94-23.75L538.94-23.75Q544-27.31 551.13-28.06L551.13-28.06L551.13-28.06Q551.50-28.06 552.88-28.06L552.88-28.06L552.88-28.06Q554.25-28.06 556.56-27.25L556.56-27.25L556.56-27.25Q561.69-25.50 563.56-21.06L563.56-21.06L563.56-21.06Q564.31-19.31 564.31-18.09L564.31-18.09L564.31-18.09Q564.31-16.88 564.25-16.38L564.25-16.38L564.25-16.38Q564.25-8.56 558.31-4.06L558.31-4.06L558.31-4.06Q552.81 0.06 544.56 0.06L544.56 0.06L544.56 0.06Q538.63 0.06 535.59-2.69L535.59-2.69L535.59-2.69Q532.56-5.44 532.56-11.88ZM536.88-10.38L536.88-10.38L536.88-10.38Q536.88-6.50 538.94-5.13L538.94-5.13L538.94-5.13Q540.50-4.13 544.19-4.13L544.19-4.13L544.19-4.13Q547.88-4.13 550.69-4.69L550.69-4.69L550.69-4.69Q553.50-5.25 555.69-6.63L555.69-6.63L555.69-6.63Q560.38-9.63 560.38-15.94L560.38-15.94L560.38-15.94Q560.38-19.69 558.38-22.06L558.38-22.06L558.38-22.06Q556.19-24.63 552.63-24.63L552.63-24.63L552.63-24.63Q550.19-24.19 547.72-23.69L547.72-23.69L547.72-23.69Q545.25-23.19 543.06-21.75L543.06-21.75L543.06-21.75Q538.31-18.69 536.88-10.38ZM614-16.13L614-16.13L614-16.13Q620.88-16.13 620.88-12.63L620.88-12.63L620.88-12.63Q620.88-10 617.06-6.50L617.06-6.50L617.06-6.50Q611.38-1.31 601.75 1.81L601.75 1.81L601.75 1.81Q601.31 1.81 600.78 0.94L600.78 0.94L600.78 0.94Q600.25 0.06 599.97-0.41L599.97-0.41L599.97-0.41Q599.69-0.88 599.56-1L599.56-1L599.56-1Q606.75-3.38 611.38-6.75L611.38-6.75L611.38-6.75Q614.50-9 614.50-10.44L614.50-10.44L614.50-10.44Q614.50-11.88 610.81-11.88L610.81-11.88L610.81-11.88Q607.13-11.88 600-10.13L600-10.13L600-10.13Q596.75-10.25 594.38-12.44L594.38-12.44L594.38-12.44Q592.31-14.38 592.31-16.34L592.31-16.34L592.31-16.34Q592.31-18.31 593.44-19.97L593.44-19.97L593.44-19.97Q594.56-21.63 596.44-23.06L596.44-23.06L596.44-23.06Q598.31-24.50 600.81-25.69L600.81-25.69L600.81-25.69Q606.94-28.63 613.50-28.63L613.50-28.63L613.50-28.63Q615.44-28.63 617.25-28.25L617.25-28.25L617.25-28.25Q618.75-28.25 619-26.94L619-26.94L619-26.94Q619.25-25.63 619.25-22.63L619.25-22.63L619.25-22.63Q615.56-24.31 610.94-24.31L610.94-24.31L610.94-24.31Q605.19-24.31 601.44-22L601.44-22L601.44-22Q597.56-19.75 597.44-16.13L597.44-16.13L597.44-16.13Q597.44-14.38 600-14.38L600-14.38L604.56-14.88L604.56-14.88Q610.44-16.13 614-16.13ZM649.31-10.38L649.31-10.38L649.31-10.38Q644.63-3 636.81-1.25L636.81-1.25L636.81-1.25Q635-0.88 633.53-0.88L633.53-0.88L633.53-0.88Q632.06-0.88 631.09-0.91L631.09-0.91L631.09-0.91Q630.13-0.94 628.94-1.19L628.94-1.19L628.94-1.19Q627.75-1.44 626.75-2L626.75-2L626.75-2Q624.44-3.31 624.44-5.69L624.44-5.69L624.44-5.69Q624.19-6.81 624.19-8.22L624.19-8.22L624.19-8.22Q624.19-9.63 624.81-11.94L624.81-11.94L624.81-11.94Q625.44-14.25 627.09-16.94L627.09-16.94L627.09-16.94Q628.75-19.63 631.13-21.88L631.13-21.88L631.13-21.88Q636.06-26.63 641.81-28L641.81-28L641.81-28Q643.50-28.38 644.91-28.38L644.91-28.38L644.91-28.38Q646.31-28.38 647.44-28.19L647.44-28.19L647.44-28.19Q651.06-28.19 652.31-23.25L652.31-23.25L652.31-23.25Q653.13-20.13 653.28-14.53L653.28-14.53L653.28-14.53Q653.44-8.94 653.59-5.91L653.59-5.91L653.59-5.91Q653.75-2.88 654.38-0.38L654.38-0.38L650.69-0.38L650.69-0.38Q650.44-2.06 650.31-3.38L650.31-3.38L650.31-3.38Q650.19-4.69 650.06-5.81L650.06-5.81L650.06-5.81Q649.75-8.44 649.31-10.38ZM649.06-20.06L649.06-20.06L649.06-20.06Q649.06-23.69 645.50-23.69L645.50-23.69L645.50-23.69Q645.06-23.75 644.63-23.75L644.63-23.75L644.63-23.75Q640.06-23.75 635-19.38L635-19.38L635-19.38Q632.63-17.38 630.94-14.88L630.94-14.88L630.94-14.88Q628.44-11.31 628.44-8.50L628.44-8.50L628.44-8.50Q628.44-4.81 632.69-4.13L632.69-4.13L632.69-4.13Q638.31-4.25 643.44-9.25L643.44-9.25L643.44-9.25Q645.63-11.44 647.06-14L647.06-14L647.06-14Q649.06-17.44 649.06-20.06ZM689.50-27.13L670.50 23.56L670.50 23.56Q669.19 26.50 667.38 26.50L667.38 26.50L667.38 26.50Q666.50 26.50 666.09 25.72L666.09 25.72L666.09 25.72Q665.69 24.94 666.06 23.88L666.06 23.88L666.06 23.88Q667.44 18.06 670.03 10.63L670.03 10.63L670.03 10.63Q672.63 3.19 673.50 0.63L673.50 0.63L673.50 0.63Q671.31-1.56 666.63-8.13L666.63-8.13L666.63-8.13Q657-21.63 657-22.94L657-22.94L657-22.94Q657-23 657.06-23.06L657.06-23.06L659.44-25.44L659.44-25.44Q664.38-20.88 672.31-9.94L672.31-9.94L672.31-9.94Q674.31-7.19 675.50-5.31L675.50-5.31L675.50-5.31Q676.81-7.94 677.56-9.84L677.56-9.84L677.56-9.84Q678.31-11.75 678.78-12.91L678.78-12.91L678.78-12.91Q679.25-14.06 680.06-16L680.06-16L680.06-16Q682.19-21.19 685.94-29.19L685.94-29.19L685.94-29.19Q686.50-29.44 687.13-29.44L687.13-29.44L687.13-29.44Q688.69-29.44 689.38-28.63L689.38-28.63L689.38-28.63Q689.63-28.31 689.63-27.91L689.63-27.91L689.63-27.91Q689.63-27.50 689.50-27.13L689.50-27.13ZM741.81-17.25L741.81-17.25L741.81-17.25Q740.44-12.69 739.53-8.81L739.53-8.81L739.53-8.81Q738.63-4.94 737.75-2.38L737.75-2.38L737.75-2.38Q736.38 1.31 734.63 1.31L734.63 1.31L734.63 1.31Q733.69 1.31 732.50 0.44L732.50 0.44L732.50 0.44Q729.63-2.63 724.38-13.13L724.38-13.13L724.38-13.13Q719.25-23.38 719.25-25.94L719.25-25.94L719.25-25.94Q719.25-27.06 719.94-27.34L719.94-27.34L719.94-27.34Q720.63-27.63 721.50-27.38L721.50-27.38L721.50-27.38Q723.63-26.75 724.50-25.44L724.50-25.44L724.50-25.44Q724.94-24.81 725.56-23.25L725.56-23.25L727.13-19.38L727.13-19.38Q729.75-12.81 732.31-7.38L732.31-7.38L732.31-7.38Q733.69-9.50 734.94-12.88L734.94-12.88L736.88-18.25L736.88-18.25Q739.38-25.31 741.38-25.44L741.38-25.44L741.38-25.44Q742.94-26.44 750.75-14.38L750.75-14.38L750.75-14.38Q754.06-9.25 754.88-8.25L754.88-8.25L754.88-8.25Q755.44-8.25 756.22-12L756.22-12L756.22-12Q757-15.75 757.59-18.34L757.59-18.34L757.59-18.34Q758.19-20.94 759.06-23.19L759.06-23.19L759.06-23.19Q761.13-28.44 763.81-28.44L763.81-28.44L763.81-28.44Q764.69-28.44 765.03-27.84L765.03-27.84L765.03-27.84Q765.38-27.25 765.38-26.88L765.38-26.88L765.38-26.88Q765.38-26.50 765.38-26.31L765.38-26.31L765.38-26.31Q764.63-24.19 763.81-21.47L763.81-21.47L763.81-21.47Q763-18.75 762.09-15.91L762.09-15.91L762.09-15.91Q761.19-13.06 760.28-10.28L760.28-10.28L760.28-10.28Q759.38-7.50 758.50-5.25L758.50-5.25L758.50-5.25Q756.44-0.38 755.06 0L755.06 0L755.06 0Q754 0.50 751.63-2.44L751.63-2.44L751.63-2.44Q750.56-3.81 749.38-5.69L749.38-5.69L749.38-5.69Q748.19-7.56 746.88-9.56L746.88-9.56L746.88-9.56Q743.69-14.56 741.81-17.25ZM771.50-29.38L775.44-29.38L775.44-29.38Q776.25-17.69 776.81-2.31L776.81-2.31L776.81-2.31Q776.44-0.38 773.81-0.38L773.81-0.38L773.81-0.38Q773.13-0.38 772.41-0.66L772.41-0.66L772.41-0.66Q771.69-0.94 771.50-1.44L771.50-1.44L771.50-29.38ZM769.63-37.88L769.63-37.88L769.63-37.88Q769.63-40.06 772.19-40.06L772.19-40.06L772.19-40.06Q773.88-40.06 774.94-39.31L774.94-39.31L774.94-39.31Q775.13-38.63 775.13-37.97L775.13-37.97L775.13-37.97Q775.13-37.31 774.63-36.69L774.63-36.69L774.63-36.69Q774.13-36.06 773.13-36.06L773.13-36.06L773.13-36.06Q772.13-36.06 771.13-36.53L771.13-36.53L771.13-36.53Q770.13-37 769.63-37.88ZM788.94-6L788.94-6L789.06-16L789.06-16Q789.06-18.38 788.63-20.06L788.63-20.06L778.94-20.06L778.81-24.38L788.19-24.38L788.19-40.50L788.19-40.50Q788.38-41.06 788.94-41.63L788.94-41.63L788.94-41.63Q789.81-42.50 790.41-42.50L790.41-42.50L790.41-42.50Q791-42.50 791.44-42.38L791.44-42.38L791.44-42.38Q791.88-42.25 792.38-41.50L792.38-41.50L792.38-41.50Q793.38-37.38 793.38-29.06L793.38-29.06L793.38-29.06Q793.38-27 793.56-25L793.56-25L793.56-25Q795.56-25.25 797.56-25.25L797.56-25.25L797.56-25.25Q797.56-25.25 800.81-25.25L800.81-25.25L800.81-25.25Q802-25.25 803-25.38L803-25.38L802.81-20.88L793.69-21.13L794 0.44L794 0.44Q792.88 0.94 792.06 0.94L792.06 0.94L792.06 0.94Q788.94 0.94 788.94-6ZM834.75-0.88L834.75-0.88L834.75-0.88Q834.19 0.19 831.84 0.19L831.84 0.19L831.84 0.19Q829.50 0.19 829.50-1.50L829.50-1.50L829.50-1.50Q829.50-8.88 829.19-11.63L829.19-11.63L829.19-11.63Q828.63-17.69 826.81-18.13L826.81-18.13L826.81-18.13Q822.31-19 819.47-19L819.47-19L819.47-19Q816.63-19 814.78-17.28L814.78-17.28L814.78-17.28Q812.94-15.56 811.97-11.59L811.97-11.59L811.97-11.59Q811-7.63 810.56-0.44L810.56-0.44L805.75-0.44L805.75-0.44Q805.88-4 805.88-7.06L805.88-7.06L805.88-7.06Q805.88-10.13 805.75-14.34L805.75-14.34L805.75-14.34Q805.63-18.56 805.44-23.56L805.44-23.56L805.44-23.56Q805.13-29.31 805.13-33.28L805.13-33.28L805.13-33.28Q805.13-37.25 805.63-40.56L805.63-40.56L805.63-40.56Q806.25-41.75 807.44-41.75L807.44-41.75L807.44-41.75Q808.88-41.75 809.69-40.72L809.69-40.72L809.69-40.72Q810.50-39.69 810.56-38.88L810.56-38.88L810.25-28.56L810.25-28.56Q810.25-22.75 810.81-19.88L810.81-19.88L810.81-19.88Q816.44-23.63 822.44-23.63L822.44-23.63L822.44-23.63Q824.38-23.63 826.56-23.31L826.56-23.31L826.56-23.31Q831.25-20.88 832.69-18.13L832.69-18.13L832.69-18.13Q833.38-16.69 833.56-15.06L833.56-15.06L833.56-15.06Q833.75-13.44 833.81-11.38L833.81-11.38L833.81-11.38Q834.19-4.25 834.75-0.88ZM894.88-27.13L875.88 23.56L875.88 23.56Q874.56 26.50 872.75 26.50L872.75 26.50L872.75 26.50Q871.88 26.50 871.47 25.72L871.47 25.72L871.47 25.72Q871.06 24.94 871.44 23.88L871.44 23.88L871.44 23.88Q872.81 18.06 875.41 10.63L875.41 10.63L875.41 10.63Q878 3.19 878.88 0.63L878.88 0.63L878.88 0.63Q876.69-1.56 872-8.13L872-8.13L872-8.13Q862.38-21.63 862.38-22.94L862.38-22.94L862.38-22.94Q862.38-23 862.44-23.06L862.44-23.06L864.81-25.44L864.81-25.44Q869.75-20.88 877.69-9.94L877.69-9.94L877.69-9.94Q879.69-7.19 880.88-5.31L880.88-5.31L880.88-5.31Q882.19-7.94 882.94-9.84L882.94-9.84L882.94-9.84Q883.69-11.75 884.16-12.91L884.16-12.91L884.16-12.91Q884.63-14.06 885.44-16L885.44-16L885.44-16Q887.56-21.19 891.31-29.19L891.31-29.19L891.31-29.19Q891.88-29.44 892.50-29.44L892.50-29.44L892.50-29.44Q894.06-29.44 894.75-28.63L894.75-28.63L894.75-28.63Q895-28.31 895-27.91L895-27.91L895-27.91Q895-27.50 894.88-27.13L894.88-27.13ZM899.38-11.88L899.38-11.88L899.38-11.88Q899.38-19.25 905.75-23.75L905.75-23.75L905.75-23.75Q910.81-27.31 917.94-28.06L917.94-28.06L917.94-28.06Q918.31-28.06 919.69-28.06L919.69-28.06L919.69-28.06Q921.06-28.06 923.38-27.25L923.38-27.25L923.38-27.25Q928.50-25.50 930.38-21.06L930.38-21.06L930.38-21.06Q931.13-19.31 931.13-18.09L931.13-18.09L931.13-18.09Q931.13-16.88 931.06-16.38L931.06-16.38L931.06-16.38Q931.06-8.56 925.13-4.06L925.13-4.06L925.13-4.06Q919.63 0.06 911.38 0.06L911.38 0.06L911.38 0.06Q905.44 0.06 902.41-2.69L902.41-2.69L902.41-2.69Q899.38-5.44 899.38-11.88ZM903.69-10.38L903.69-10.38L903.69-10.38Q903.69-6.50 905.75-5.13L905.75-5.13L905.75-5.13Q907.31-4.13 911-4.13L911-4.13L911-4.13Q914.69-4.13 917.50-4.69L917.50-4.69L917.50-4.69Q920.31-5.25 922.50-6.63L922.50-6.63L922.50-6.63Q927.19-9.63 927.19-15.94L927.19-15.94L927.19-15.94Q927.19-19.69 925.19-22.06L925.19-22.06L925.19-22.06Q923-24.63 919.44-24.63L919.44-24.63L919.44-24.63Q917-24.19 914.53-23.69L914.53-23.69L914.53-23.69Q912.06-23.19 909.88-21.75L909.88-21.75L909.88-21.75Q905.13-18.69 903.69-10.38ZM933.50-8.31L933.50-8.31L933.50-8.31Q933.50-9.31 933.34-11.09L933.34-11.09L933.34-11.09Q933.19-12.88 933.06-15L933.06-15L933.06-15Q932.94-17.13 932.94-19.31L932.94-19.31L932.94-19.31Q932.94-21.50 933.31-23.31L933.31-23.31L933.31-23.31Q934.13-27.38 936.69-27.38L936.69-27.38L936.69-27.38Q938.44-26.88 939.03-26.13L939.03-26.13L939.03-26.13Q939.63-25.38 939.63-24.28L939.63-24.28L939.63-24.28Q939.63-23.19 939.06-21.56L939.06-21.56L939.06-21.56Q937-16.13 937-11.75L937-11.75L937-11.75Q937-10.31 937.19-8.69L937.19-8.69L937.19-8.69Q938.19-4.50 944.06-4.50L944.06-4.50L944.06-4.50Q947.13-4.50 949.88-5.56L949.88-5.56L949.88-5.56Q955.13-7.50 957-10.13L957-10.13L957-10.13Q957.56-13 957.56-15.16L957.56-15.16L957.56-15.16Q957.56-17.31 957.41-19L957.41-19L957.41-19Q957.25-20.69 957.03-22.72L957.03-22.72L957.03-22.72Q956.81-24.75 956.75-27.19L956.75-27.19L956.75-27.19Q957.56-27.56 958.34-27.56L958.34-27.56L958.34-27.56Q959.13-27.56 959.97-26.75L959.97-26.75L959.97-26.75Q960.81-25.94 961.41-23.69L961.41-23.69L961.41-23.69Q962-21.44 962.19-18.41L962.19-18.41L962.19-18.41Q962.38-15.38 962.41-12.13L962.41-12.13L962.41-12.13Q962.44-8.88 962.44-5.84L962.44-5.84L962.44-5.84Q962.44-2.81 962.69-0.63L962.69-0.63L962.69-0.63Q961.94 0.06 961.25 0.06L961.25 0.06L961.25 0.06Q958.75 0.06 957.56-4.94L957.56-4.94L957.56-4.94Q956.75-4.25 954.81-3.25L954.81-3.25L954.81-3.25Q950.69-1 945.06-0.25L945.06-0.25L945.06-0.25Q944-0.13 942.69-0.13L942.69-0.13L942.69-0.13Q941.38-0.13 939.41-0.63L939.41-0.63L939.41-0.63Q937.44-1.13 935.69-2.94L935.69-2.94L935.69-2.94Q933.94-4.75 933.50-8.31ZM995.06-7.88L995.06-7.88L995.06-7.88Q995.06-8.81 995.91-9.69L995.91-9.69L995.91-9.69Q996.75-10.56 997.81-10.56L997.81-10.56L997.81-10.56Q998.88-10.56 999.44-9.88L999.44-9.88L999.44-9.88Q1000-9.19 1000-8.41L1000-8.41L1000-8.41Q1000-7.63 999.41-6.97L999.41-6.97L999.41-6.97Q998.81-6.31 998.31-6.31L998.31-6.31L998.31-6.31Q997.81-6.31 997.41-6.31L997.41-6.31L997.41-6.31Q997-6.31 996.03-6.63L996.03-6.63L996.03-6.63Q995.06-6.94 995.06-7.88ZM993.06-19.88L993.06-19.88L993.06-19.88Q992.19-20.13 992.19-20.81L992.19-20.81L992.19-20.81Q992.19-21.75 993.13-22.38L993.13-22.38L993.13-22.38Q994.06-23 994.63-23.06L994.63-23.06L994.63-23.06Q996.56-22.81 997.09-22.09L997.09-22.09L997.09-22.09Q997.63-21.38 997.63-20.94L997.63-20.94L997.63-20.94Q997.63-19.63 996-19.25L996-19.25L996-19.25Q995.75-19.13 995.09-19.13L995.09-19.13L995.09-19.13Q994.44-19.13 993.06-19.88ZM1031.06-31.69L1031.06-31.69L1031.06-31.69Q1031.06-27.94 1025.06-22.88L1025.06-22.88L1025.06-22.88Q1023.56-21.69 1022.50-20.75L1022.50-20.75L1022.50-20.75Q1030.19-20.63 1031.69-17.13L1031.69-17.13L1031.69-17.13Q1032-16.31 1032-15.44L1032-15.44L1032-15.44Q1032-14.56 1031.53-13.09L1031.53-13.09L1031.53-13.09Q1031.06-11.63 1029.56-9.63L1029.56-9.63L1029.56-9.63Q1028.06-7.63 1025.94-5.75L1025.94-5.75L1025.94-5.75Q1021.50-1.88 1016.56-0.38L1016.56-0.38L1016.56-0.38Q1014.88 0.13 1013.84 0.13L1013.84 0.13L1013.84 0.13Q1012.81 0.13 1012.19 0.09L1012.19 0.09L1012.19 0.09Q1011.56 0.06 1010.88-0.31L1010.88-0.31L1010.88-0.31Q1010.19-0.69 1010.19-1.56L1010.19-1.56L1010.19-1.56Q1014.88-2.75 1018.44-4.94L1018.44-4.94L1018.44-4.94Q1022-7.13 1024.06-9.50L1024.06-9.50L1024.06-9.50Q1026.50-12.44 1026.50-14.38L1026.50-14.38L1026.50-14.38Q1026.50-16.31 1025.31-17L1025.31-17L1025.31-17Q1024.13-17.69 1022.25-17.69L1022.25-17.69L1022.25-17.69Q1017.50-17.69 1009.31-13.81L1009.31-13.81L1007.13-16.63L1007.13-16.63Q1026.06-25.38 1026.06-29.19L1026.06-29.19L1026.06-29.19Q1026.06-30.81 1022.50-31.31L1022.50-31.31L1022.50-31.31Q1018.81-31.31 1014.09-30.06L1014.09-30.06L1014.09-30.06Q1009.38-28.81 1006.81-28.25L1006.81-28.25L1006.81-28.25Q1004.25-27.69 1001.56-27.69L1001.56-27.69L1001.56-27.69Q1001.56-30.63 1003-31.13L1003-31.13L1003-31.13Q1005.63-31.75 1008.56-32.50L1008.56-32.50L1008.56-32.50Q1018.19-34.94 1023.97-34.94L1023.97-34.94L1023.97-34.94Q1029.75-34.94 1031.06-31.69Z" fill="url(#editing-shiny-gradient)"></path></g></g><g filter="url(#editing-shiny2)"><g transform="translate(-266.8149975538254, 110.38669013977051)"><path d="M6.56-35.31L6.56-1L6.56-1Q6.56 0.06 5.06 0.06L5.06 0.06L5.06 0.06Q3.94 0.06 2.38-1L2.38-1L2.38-1Q1.63-2.69 1.63-9.06L1.63-9.06L1.63-9.06Q1.63-15.44 1.75-19.59L1.75-19.59L1.75-19.59Q1.88-23.75 2-27.25L2-27.25L2-27.25Q2.38-34.88 2.38-35.31L2.38-35.31L2.38-35.31Q4.19-36.38 5.38-36.38L5.38-36.38L5.38-36.38Q6.56-36.38 6.56-35.31L6.56-35.31ZM66.38-0.88L66.38-0.88L66.38-0.88Q65.81 0.19 63.47 0.19L63.47 0.19L63.47 0.19Q61.13 0.19 61.13-1.50L61.13-1.50L61.13-1.50Q61.13-8.88 60.81-11.63L60.81-11.63L60.81-11.63Q60.25-17.69 58.44-18.13L58.44-18.13L58.44-18.13Q53.94-19 51.09-19L51.09-19L51.09-19Q48.25-19 46.41-17.28L46.41-17.28L46.41-17.28Q44.56-15.56 43.59-11.59L43.59-11.59L43.59-11.59Q42.63-7.63 42.19-0.44L42.19-0.44L37.38-0.44L37.38-0.44Q37.50-4 37.50-7.06L37.50-7.06L37.50-7.06Q37.50-10.13 37.38-14.34L37.38-14.34L37.38-14.34Q37.25-18.56 37.06-23.56L37.06-23.56L37.06-23.56Q36.75-29.31 36.75-33.28L36.75-33.28L36.75-33.28Q36.75-37.25 37.25-40.56L37.25-40.56L37.25-40.56Q37.88-41.75 39.06-41.75L39.06-41.75L39.06-41.75Q40.50-41.75 41.31-40.72L41.31-40.72L41.31-40.72Q42.13-39.69 42.19-38.88L42.19-38.88L41.88-28.56L41.88-28.56Q41.88-22.75 42.44-19.88L42.44-19.88L42.44-19.88Q48.06-23.63 54.06-23.63L54.06-23.63L54.06-23.63Q56-23.63 58.19-23.31L58.19-23.31L58.19-23.31Q62.88-20.88 64.31-18.13L64.31-18.13L64.31-18.13Q65-16.69 65.19-15.06L65.19-15.06L65.19-15.06Q65.38-13.44 65.44-11.38L65.44-11.38L65.44-11.38Q65.81-4.25 66.38-0.88ZM93.25-10.38L93.25-10.38L93.25-10.38Q88.56-3 80.75-1.25L80.75-1.25L80.75-1.25Q78.94-0.88 77.47-0.88L77.47-0.88L77.47-0.88Q76-0.88 75.03-0.91L75.03-0.91L75.03-0.91Q74.06-0.94 72.88-1.19L72.88-1.19L72.88-1.19Q71.69-1.44 70.69-2L70.69-2L70.69-2Q68.38-3.31 68.38-5.69L68.38-5.69L68.38-5.69Q68.13-6.81 68.13-8.22L68.13-8.22L68.13-8.22Q68.13-9.63 68.75-11.94L68.75-11.94L68.75-11.94Q69.38-14.25 71.03-16.94L71.03-16.94L71.03-16.94Q72.69-19.63 75.06-21.88L75.06-21.88L75.06-21.88Q80-26.63 85.75-28L85.75-28L85.75-28Q87.44-28.38 88.84-28.38L88.84-28.38L88.84-28.38Q90.25-28.38 91.38-28.19L91.38-28.19L91.38-28.19Q95-28.19 96.25-23.25L96.25-23.25L96.25-23.25Q97.06-20.13 97.22-14.53L97.22-14.53L97.22-14.53Q97.38-8.94 97.53-5.91L97.53-5.91L97.53-5.91Q97.69-2.88 98.31-0.38L98.31-0.38L94.63-0.38L94.63-0.38Q94.38-2.06 94.25-3.38L94.25-3.38L94.25-3.38Q94.13-4.69 94-5.81L94-5.81L94-5.81Q93.69-8.44 93.25-10.38ZM93-20.06L93-20.06L93-20.06Q93-23.69 89.44-23.69L89.44-23.69L89.44-23.69Q89-23.75 88.56-23.75L88.56-23.75L88.56-23.75Q84-23.75 78.94-19.38L78.94-19.38L78.94-19.38Q76.56-17.38 74.88-14.88L74.88-14.88L74.88-14.88Q72.38-11.31 72.38-8.50L72.38-8.50L72.38-8.50Q72.38-4.81 76.63-4.13L76.63-4.13L76.63-4.13Q82.25-4.25 87.38-9.25L87.38-9.25L87.38-9.25Q89.56-11.44 91-14L91-14L91-14Q93-17.44 93-20.06ZM101.81-24.19L101.81-24.19L101.81-24.19Q101.69-24.50 101.69-24.91L101.69-24.91L101.69-24.91Q101.69-25.31 102-26L102-26L102-26Q102.31-26.69 102.91-27.19L102.91-27.19L102.91-27.19Q103.50-27.69 104.22-27.66L104.22-27.66L104.22-27.66Q104.94-27.63 105.38-26.75L105.38-26.75L115.88-7.25L115.88-7.25Q116.38-8 117.47-10.03L117.47-10.03L117.47-10.03Q118.56-12.06 119.97-14.63L119.97-14.63L119.97-14.63Q121.38-17.19 122.91-19.97L122.91-19.97L122.91-19.97Q124.44-22.75 125.75-25.06L125.75-25.06L125.75-25.06Q128.75-30.38 129.31-30.38L129.31-30.38L129.31-30.38Q130.63-30.38 131.22-29.41L131.22-29.41L131.22-29.41Q131.81-28.44 131.81-27.94L131.81-27.94L131.81-27.94Q131.81-27.44 131.81-27.25L131.81-27.25L131.81-27.25Q128.31-19.63 125.34-13.19L125.34-13.19L125.34-13.19Q122.38-6.75 121.41-4.84L121.41-4.84L121.41-4.84Q120.44-2.94 119.69-1.81L119.69-1.81L119.69-1.81Q118.38 0.13 117.13 0.13L117.13 0.13L117.13 0.13Q115.88 0.13 114.25-1.84L114.25-1.84L114.25-1.84Q112.63-3.81 110.56-7.13L110.56-7.13L110.56-7.13Q106.94-13.13 101.81-24.19ZM147.19-4.38L147.19-4.38L147.19-4.38Q152.69-4.38 163.75-9.38L163.75-9.38L163.75-9.38Q164.44-9.38 164.88-8.91L164.88-8.91L164.88-8.91Q165.31-8.44 165.31-7.81L165.31-7.81L165.31-7.81Q162.81-3.56 155.75-1.19L155.75-1.19L155.75-1.19Q148.69 1.19 142.56-0.38L142.56-0.38L142.56-0.38Q135.63-2.19 134.13-8.19L134.13-8.19L134.13-8.19Q134-9.38 134-11.38L134-11.38L134-11.38Q134-13.38 135.03-16.66L135.03-16.66L135.03-16.66Q136.06-19.94 138.56-22.88L138.56-22.88L138.56-22.88Q141.06-25.81 144.44-27.50L144.44-27.50L144.44-27.50Q147.81-29.19 151.63-29.19L151.63-29.19L151.63-29.19Q155.25-29.19 159.75-26.69L159.75-26.69L159.75-26.69Q161.88-25.50 163.13-24L163.13-24L163.13-24Q164.38-22.50 164.38-20.94L164.38-20.94L164.38-20.94Q164.38-20.50 164.31-20.06L164.31-20.06L164.31-20.06Q164.19-16.25 160.63-15.25L160.63-15.25L160.63-15.25Q159.06-14.81 157-14.81L157-14.81L148-15.19L148-15.19Q143.50-15.19 141.13-13.25L141.13-13.25L141.13-13.25Q139.75-12.19 139.19-10.06L139.19-10.06L139.19-10.06Q140.75-4.38 147.19-4.38ZM158.34-23.69L158.34-23.69L158.34-23.69Q156.94-24.69 155.44-25.13L155.44-25.13L155.44-25.13Q153.94-25.56 152.94-25.56L152.94-25.56L152.94-25.56Q151.94-25.56 149.69-24.91L149.69-24.91L149.69-24.91Q147.44-24.25 145.69-23.44L145.69-23.44L145.69-23.44Q141.38-21.44 141.38-19.25L141.38-19.25L141.38-19.25Q146.38-18.81 148.88-18.81L148.88-18.81L148.88-18.81Q155.81-18.81 158.25-20L158.25-20L158.25-20Q159.75-20.63 159.75-21.56L159.75-21.56L159.75-21.56Q159.75-22.69 158.34-23.69ZM216.06-16.13L216.06-16.13L216.06-16.13Q222.94-16.13 222.94-12.63L222.94-12.63L222.94-12.63Q222.94-10 219.13-6.50L219.13-6.50L219.13-6.50Q213.44-1.31 203.81 1.81L203.81 1.81L203.81 1.81Q203.38 1.81 202.84 0.94L202.84 0.94L202.84 0.94Q202.31 0.06 202.03-0.41L202.03-0.41L202.03-0.41Q201.75-0.88 201.63-1L201.63-1L201.63-1Q208.81-3.38 213.44-6.75L213.44-6.75L213.44-6.75Q216.56-9 216.56-10.44L216.56-10.44L216.56-10.44Q216.56-11.88 212.88-11.88L212.88-11.88L212.88-11.88Q209.19-11.88 202.06-10.13L202.06-10.13L202.06-10.13Q198.81-10.25 196.44-12.44L196.44-12.44L196.44-12.44Q194.38-14.38 194.38-16.34L194.38-16.34L194.38-16.34Q194.38-18.31 195.50-19.97L195.50-19.97L195.50-19.97Q196.63-21.63 198.50-23.06L198.50-23.06L198.50-23.06Q200.38-24.50 202.88-25.69L202.88-25.69L202.88-25.69Q209-28.63 215.56-28.63L215.56-28.63L215.56-28.63Q217.50-28.63 219.31-28.25L219.31-28.25L219.31-28.25Q220.81-28.25 221.06-26.94L221.06-26.94L221.06-26.94Q221.31-25.63 221.31-22.63L221.31-22.63L221.31-22.63Q217.63-24.31 213-24.31L213-24.31L213-24.31Q207.25-24.31 203.50-22L203.50-22L203.50-22Q199.63-19.75 199.50-16.13L199.50-16.13L199.50-16.13Q199.50-14.38 202.06-14.38L202.06-14.38L206.63-14.88L206.63-14.88Q212.50-16.13 216.06-16.13ZM228.38-11.88L228.38-11.88L228.38-11.88Q228.38-19.25 234.75-23.75L234.75-23.75L234.75-23.75Q239.81-27.31 246.94-28.06L246.94-28.06L246.94-28.06Q247.31-28.06 248.69-28.06L248.69-28.06L248.69-28.06Q250.06-28.06 252.38-27.25L252.38-27.25L252.38-27.25Q257.50-25.50 259.38-21.06L259.38-21.06L259.38-21.06Q260.13-19.31 260.13-18.09L260.13-18.09L260.13-18.09Q260.13-16.88 260.06-16.38L260.06-16.38L260.06-16.38Q260.06-8.56 254.13-4.06L254.13-4.06L254.13-4.06Q248.63 0.06 240.38 0.06L240.38 0.06L240.38 0.06Q234.44 0.06 231.41-2.69L231.41-2.69L231.41-2.69Q228.38-5.44 228.38-11.88ZM232.69-10.38L232.69-10.38L232.69-10.38Q232.69-6.50 234.75-5.13L234.75-5.13L234.75-5.13Q236.31-4.13 240-4.13L240-4.13L240-4.13Q243.69-4.13 246.50-4.69L246.50-4.69L246.50-4.69Q249.31-5.25 251.50-6.63L251.50-6.63L251.50-6.63Q256.19-9.63 256.19-15.94L256.19-15.94L256.19-15.94Q256.19-19.69 254.19-22.06L254.19-22.06L254.19-22.06Q252-24.63 248.44-24.63L248.44-24.63L248.44-24.63Q246-24.19 243.53-23.69L243.53-23.69L243.53-23.69Q241.06-23.19 238.88-21.75L238.88-21.75L238.88-21.75Q234.13-18.69 232.69-10.38ZM268-1L268-1L268-1Q265.44 0.06 264.59 0.06L264.59 0.06L264.59 0.06Q263.75 0.06 263.44-0.13L263.44-0.13L263.44-0.13Q263.13-0.31 262.75-1L262.75-1L262.75-1Q262.75-3.06 262.91-6.19L262.91-6.19L262.91-6.19Q263.06-9.31 263.19-12.88L263.19-12.88L263.19-12.88Q263.31-16.44 263.31-20.06L263.31-20.06L263.31-20.06Q263.31-23.69 262.94-26.69L262.94-26.69L262.94-26.69Q262.94-28.69 265.63-28.69L265.63-28.69L265.63-28.69Q266.25-28.69 266.59-26.44L266.59-26.44L266.59-26.44Q266.94-24.19 267.09-22.94L267.09-22.94L267.09-22.94Q267.25-21.69 267.38-21.13L267.38-21.13L267.38-21.13Q269-24.06 273.81-25.75L273.81-25.75L273.81-25.75Q276.38-26.56 278.63-26.56L278.63-26.56L278.63-26.56Q280.88-26.56 282.59-26.03L282.59-26.03L282.59-26.03Q284.31-25.50 285.53-24.09L285.53-24.09L285.53-24.09Q286.75-22.69 286.75-20.38L286.75-20.38L286.75-20.38Q288.38-23.44 294.06-25.88L294.06-25.88L294.06-25.88Q299.25-28.19 303.38-28.19L303.38-28.19L303.38-28.19Q309.31-28.19 309.19-23.69L309.19-23.69L310.50-0.44L310.50-0.44Q310.50-0.13 308.69 0L308.69 0L308.69 0Q305.19 0.25 305.19-0.63L305.19-0.63L305.19-0.63Q305.13-1.88 305.13-3.13L305.13-3.13L305.44-13.19L305.44-13.19Q305.44-20.25 304.06-24.38L304.06-24.38L304.06-24.38Q299.94-24.06 297.72-23.03L297.72-23.03L297.72-23.03Q295.50-22 293.81-20.47L293.81-20.47L293.81-20.47Q292.13-18.94 290.81-16.38L290.81-16.38L290.81-16.38Q287.88-10.63 287.88-1.13L287.88-1.13L287.88-1.13Q287.50 0.19 285.44 0.19L285.44 0.19L285.44 0.19Q284.06 0.19 283.19-0.28L283.19-0.28L283.19-0.28Q282.31-0.75 282.50-1.13L282.50-1.13L282.50-1.13Q283.69-7.75 283.69-11.44L283.69-11.44L283.69-11.44Q283.69-14.38 283.09-17.03L283.09-17.03L283.09-17.03Q282.50-19.69 281.63-23.13L281.63-23.13L281.63-23.13Q272.63-23.13 269.50-15.94L269.50-15.94L269.50-15.94Q268.13-12.75 267.97-9.97L267.97-9.97L267.97-9.97Q267.81-7.19 267.81-5.22L267.81-5.22L267.81-5.22Q267.81-3.25 268-1ZM325.38-4.38L325.38-4.38L325.38-4.38Q330.88-4.38 341.94-9.38L341.94-9.38L341.94-9.38Q342.63-9.38 343.06-8.91L343.06-8.91L343.06-8.91Q343.50-8.44 343.50-7.81L343.50-7.81L343.50-7.81Q341-3.56 333.94-1.19L333.94-1.19L333.94-1.19Q326.88 1.19 320.75-0.38L320.75-0.38L320.75-0.38Q313.81-2.19 312.31-8.19L312.31-8.19L312.31-8.19Q312.19-9.38 312.19-11.38L312.19-11.38L312.19-11.38Q312.19-13.38 313.22-16.66L313.22-16.66L313.22-16.66Q314.25-19.94 316.75-22.88L316.75-22.88L316.75-22.88Q319.25-25.81 322.63-27.50L322.63-27.50L322.63-27.50Q326-29.19 329.81-29.19L329.81-29.19L329.81-29.19Q333.44-29.19 337.94-26.69L337.94-26.69L337.94-26.69Q340.06-25.50 341.31-24L341.31-24L341.31-24Q342.56-22.50 342.56-20.94L342.56-20.94L342.56-20.94Q342.56-20.50 342.50-20.06L342.50-20.06L342.50-20.06Q342.38-16.25 338.81-15.25L338.81-15.25L338.81-15.25Q337.25-14.81 335.19-14.81L335.19-14.81L326.19-15.19L326.19-15.19Q321.69-15.19 319.31-13.25L319.31-13.25L319.31-13.25Q317.94-12.19 317.38-10.06L317.38-10.06L317.38-10.06Q318.94-4.38 325.38-4.38ZM336.53-23.69L336.53-23.69L336.53-23.69Q335.13-24.69 333.63-25.13L333.63-25.13L333.63-25.13Q332.13-25.56 331.13-25.56L331.13-25.56L331.13-25.56Q330.13-25.56 327.88-24.91L327.88-24.91L327.88-24.91Q325.63-24.25 323.88-23.44L323.88-23.44L323.88-23.44Q319.56-21.44 319.56-19.25L319.56-19.25L319.56-19.25Q324.56-18.81 327.06-18.81L327.06-18.81L327.06-18.81Q334-18.81 336.44-20L336.44-20L336.44-20Q337.94-20.63 337.94-21.56L337.94-21.56L337.94-21.56Q337.94-22.69 336.53-23.69ZM356.69-6L356.69-6L356.81-16L356.81-16Q356.81-18.38 356.38-20.06L356.38-20.06L346.69-20.06L346.56-24.38L355.94-24.38L355.94-40.50L355.94-40.50Q356.13-41.06 356.69-41.63L356.69-41.63L356.69-41.63Q357.56-42.50 358.16-42.50L358.16-42.50L358.16-42.50Q358.75-42.50 359.19-42.38L359.19-42.38L359.19-42.38Q359.63-42.25 360.13-41.50L360.13-41.50L360.13-41.50Q361.13-37.38 361.13-29.06L361.13-29.06L361.13-29.06Q361.13-27 361.31-25L361.31-25L361.31-25Q363.31-25.25 365.31-25.25L365.31-25.25L365.31-25.25Q365.31-25.25 368.56-25.25L368.56-25.25L368.56-25.25Q369.75-25.25 370.75-25.38L370.75-25.38L370.56-20.88L361.44-21.13L361.75 0.44L361.75 0.44Q360.63 0.94 359.81 0.94L359.81 0.94L359.81 0.94Q356.69 0.94 356.69-6ZM402.50-0.88L402.50-0.88L402.50-0.88Q401.94 0.19 399.59 0.19L399.59 0.19L399.59 0.19Q397.25 0.19 397.25-1.50L397.25-1.50L397.25-1.50Q397.25-8.88 396.94-11.63L396.94-11.63L396.94-11.63Q396.38-17.69 394.56-18.13L394.56-18.13L394.56-18.13Q390.06-19 387.22-19L387.22-19L387.22-19Q384.38-19 382.53-17.28L382.53-17.28L382.53-17.28Q380.69-15.56 379.72-11.59L379.72-11.59L379.72-11.59Q378.75-7.63 378.31-0.44L378.31-0.44L373.50-0.44L373.50-0.44Q373.63-4 373.63-7.06L373.63-7.06L373.63-7.06Q373.63-10.13 373.50-14.34L373.50-14.34L373.50-14.34Q373.38-18.56 373.19-23.56L373.19-23.56L373.19-23.56Q372.88-29.31 372.88-33.28L372.88-33.28L372.88-33.28Q372.88-37.25 373.38-40.56L373.38-40.56L373.38-40.56Q374-41.75 375.19-41.75L375.19-41.75L375.19-41.75Q376.63-41.75 377.44-40.72L377.44-40.72L377.44-40.72Q378.25-39.69 378.31-38.88L378.31-38.88L378-28.56L378-28.56Q378-22.75 378.56-19.88L378.56-19.88L378.56-19.88Q384.19-23.63 390.19-23.63L390.19-23.63L390.19-23.63Q392.13-23.63 394.31-23.31L394.31-23.31L394.31-23.31Q399-20.88 400.44-18.13L400.44-18.13L400.44-18.13Q401.13-16.69 401.31-15.06L401.31-15.06L401.31-15.06Q401.50-13.44 401.56-11.38L401.56-11.38L401.56-11.38Q401.94-4.25 402.50-0.88ZM406.50-29.38L410.44-29.38L410.44-29.38Q411.25-17.69 411.81-2.31L411.81-2.31L411.81-2.31Q411.44-0.38 408.81-0.38L408.81-0.38L408.81-0.38Q408.13-0.38 407.41-0.66L407.41-0.66L407.41-0.66Q406.69-0.94 406.50-1.44L406.50-1.44L406.50-29.38ZM404.63-37.88L404.63-37.88L404.63-37.88Q404.63-40.06 407.19-40.06L407.19-40.06L407.19-40.06Q408.88-40.06 409.94-39.31L409.94-39.31L409.94-39.31Q410.13-38.63 410.13-37.97L410.13-37.97L410.13-37.97Q410.13-37.31 409.63-36.69L409.63-36.69L409.63-36.69Q409.13-36.06 408.13-36.06L408.13-36.06L408.13-36.06Q407.13-36.06 406.13-36.53L406.13-36.53L406.13-36.53Q405.13-37 404.63-37.88ZM438.81-9.88L438.88-13.69L438.88-13.69Q438.88-21.13 438.06-24.63L438.06-24.63L438.06-24.63Q438.56-25.56 436.56-25.56L436.56-25.56L436.56-25.56Q434.44-25.56 431.06-24.50L431.06-24.50L431.06-24.50Q427.69-23.44 425.56-22.38L425.56-22.38L425.56-22.38Q420.50-19.94 419.94-17.63L419.94-17.63L419.94-0.63L415.75-0.63L415.75-0.63Q414.94-2.75 414.94-12.56L414.94-12.56L414.94-12.56Q414.94-21.31 415.28-25.44L415.28-25.44L415.28-25.44Q415.63-29.56 415.81-30.13L415.81-30.13L415.81-30.13Q417.44-31.19 418.44-31.19L418.44-31.19L418.44-31.19Q420-31.19 420-27.50L420-27.50L420-27.50Q420-26.06 419.84-24.72L419.84-24.72L419.84-24.72Q419.69-23.38 419.69-22.88L419.69-22.88L419.69-22.88Q429.81-30.31 435.38-30.31L435.38-30.31L435.38-30.31Q441.69-30.31 442.56-20.13L442.56-20.13L442.56-20.13Q442.94-16.56 442.94-10.25L442.94-10.25L442.88-5.31L442.88-5.31Q442.88-2.56 443 0L443 0L443 0Q442.38 0.38 442 0.38L442 0.38L442 0.38Q441.81 0.31 441.19 0.19L441.19 0.19L441.19 0.19Q440.56 0.06 439.56 0L439.56 0L439.56 0Q438.94-2.50 438.88-5.09L438.88-5.09L438.88-5.09Q438.81-7.69 438.81-9.88L438.81-9.88ZM464.56 26.75L464.56 26.75L463.69 26.69L463.69 26.69Q461.81 26.69 459.69 26.94L459.69 26.94L457.31 26.94L457.31 26.94Q453.56 26.94 451.44 25.50L451.44 25.50L451.44 25.50Q450.31 24.75 450.31 23.25L450.31 23.25L464.69 22.56L464.69 22.56Q471.31 22.38 471.31 15.44L471.31 15.44L471.31 15.44Q471.31 15.19 471.31 14.59L471.31 14.59L471.31 14.59Q471.31 14 471.31 12L471.31 12L471.63-8.13L471.63-8.13Q471.63-9.19 471.56-9.88L471.56-9.88L471.56-9.88Q461.44-0.44 452.06-0.44L452.06-0.44L452.06-0.44Q451.25-0.44 450.44-0.50L450.44-0.50L450.44-0.50Q446.25-0.50 446.25-4.19L446.25-4.19L446.25-4.19Q446.38-7.06 447.94-10.53L447.94-10.53L447.94-10.53Q449.50-14 451.97-17.22L451.97-17.22L451.97-17.22Q454.44-20.44 457.56-23L457.56-23L457.56-23Q462.38-26.94 466.88-26.94L466.88-26.94L466.88-26.94Q472.13-26.94 475.50-21.38L475.50-21.38L475.50-21.38Q476.50-6.50 476.50-0.25L476.50-0.25L476.50-0.25Q476.50 6 476.31 10L476.31 10L476.31 10Q476.13 14 475.47 17.31L475.47 17.31L475.47 17.31Q474.81 20.63 473.75 22.56L473.75 22.56L473.75 22.56Q472.69 24.50 471.25 25.38L471.25 25.38L471.25 25.38Q468.88 26.75 464.56 26.75ZM468.31-22.38L468.31-22.38L468.31-22.38Q467.56-22.63 466.22-22.63L466.22-22.63L466.22-22.63Q464.88-22.63 462.75-21.50L462.75-21.50L462.75-21.50Q460.63-20.38 458.69-18.59L458.69-18.59L458.69-18.59Q456.75-16.81 455.06-14.63L455.06-14.63L455.06-14.63Q450.94-9.25 450.94-6.06L450.94-6.06L450.94-6.06Q450.94-5.06 451.50-4.56L451.50-4.56L451.50-4.56Q451.94-4.31 452.59-4.31L452.59-4.31L452.59-4.31Q453.25-4.31 454.50-4.53L454.50-4.53L454.50-4.53Q455.75-4.75 457.91-5.66L457.91-5.66L457.91-5.66Q460.06-6.56 462.38-8L462.38-8L462.38-8Q464.69-9.44 466.56-11.19L466.56-11.19L466.56-11.19Q470.94-15.19 470.94-19L470.94-19L470.94-19Q470.94-21.31 468.31-22.38ZM514.56-6L514.56-6L514.69-16L514.69-16Q514.69-18.38 514.25-20.06L514.25-20.06L504.56-20.06L504.44-24.38L513.81-24.38L513.81-40.50L513.81-40.50Q514-41.06 514.56-41.63L514.56-41.63L514.56-41.63Q515.44-42.50 516.03-42.50L516.03-42.50L516.03-42.50Q516.63-42.50 517.06-42.38L517.06-42.38L517.06-42.38Q517.50-42.25 518-41.50L518-41.50L518-41.50Q519-37.38 519-29.06L519-29.06L519-29.06Q519-27 519.19-25L519.19-25L519.19-25Q521.19-25.25 523.19-25.25L523.19-25.25L523.19-25.25Q523.19-25.25 526.44-25.25L526.44-25.25L526.44-25.25Q527.63-25.25 528.63-25.38L528.63-25.38L528.44-20.88L519.31-21.13L519.63 0.44L519.63 0.44Q518.50 0.94 517.69 0.94L517.69 0.94L517.69 0.94Q514.56 0.94 514.56-6ZM532.56-11.88L532.56-11.88L532.56-11.88Q532.56-19.25 538.94-23.75L538.94-23.75L538.94-23.75Q544-27.31 551.13-28.06L551.13-28.06L551.13-28.06Q551.50-28.06 552.88-28.06L552.88-28.06L552.88-28.06Q554.25-28.06 556.56-27.25L556.56-27.25L556.56-27.25Q561.69-25.50 563.56-21.06L563.56-21.06L563.56-21.06Q564.31-19.31 564.31-18.09L564.31-18.09L564.31-18.09Q564.31-16.88 564.25-16.38L564.25-16.38L564.25-16.38Q564.25-8.56 558.31-4.06L558.31-4.06L558.31-4.06Q552.81 0.06 544.56 0.06L544.56 0.06L544.56 0.06Q538.63 0.06 535.59-2.69L535.59-2.69L535.59-2.69Q532.56-5.44 532.56-11.88ZM536.88-10.38L536.88-10.38L536.88-10.38Q536.88-6.50 538.94-5.13L538.94-5.13L538.94-5.13Q540.50-4.13 544.19-4.13L544.19-4.13L544.19-4.13Q547.88-4.13 550.69-4.69L550.69-4.69L550.69-4.69Q553.50-5.25 555.69-6.63L555.69-6.63L555.69-6.63Q560.38-9.63 560.38-15.94L560.38-15.94L560.38-15.94Q560.38-19.69 558.38-22.06L558.38-22.06L558.38-22.06Q556.19-24.63 552.63-24.63L552.63-24.63L552.63-24.63Q550.19-24.19 547.72-23.69L547.72-23.69L547.72-23.69Q545.25-23.19 543.06-21.75L543.06-21.75L543.06-21.75Q538.31-18.69 536.88-10.38ZM614-16.13L614-16.13L614-16.13Q620.88-16.13 620.88-12.63L620.88-12.63L620.88-12.63Q620.88-10 617.06-6.50L617.06-6.50L617.06-6.50Q611.38-1.31 601.75 1.81L601.75 1.81L601.75 1.81Q601.31 1.81 600.78 0.94L600.78 0.94L600.78 0.94Q600.25 0.06 599.97-0.41L599.97-0.41L599.97-0.41Q599.69-0.88 599.56-1L599.56-1L599.56-1Q606.75-3.38 611.38-6.75L611.38-6.75L611.38-6.75Q614.50-9 614.50-10.44L614.50-10.44L614.50-10.44Q614.50-11.88 610.81-11.88L610.81-11.88L610.81-11.88Q607.13-11.88 600-10.13L600-10.13L600-10.13Q596.75-10.25 594.38-12.44L594.38-12.44L594.38-12.44Q592.31-14.38 592.31-16.34L592.31-16.34L592.31-16.34Q592.31-18.31 593.44-19.97L593.44-19.97L593.44-19.97Q594.56-21.63 596.44-23.06L596.44-23.06L596.44-23.06Q598.31-24.50 600.81-25.69L600.81-25.69L600.81-25.69Q606.94-28.63 613.50-28.63L613.50-28.63L613.50-28.63Q615.44-28.63 617.25-28.25L617.25-28.25L617.25-28.25Q618.75-28.25 619-26.94L619-26.94L619-26.94Q619.25-25.63 619.25-22.63L619.25-22.63L619.25-22.63Q615.56-24.31 610.94-24.31L610.94-24.31L610.94-24.31Q605.19-24.31 601.44-22L601.44-22L601.44-22Q597.56-19.75 597.44-16.13L597.44-16.13L597.44-16.13Q597.44-14.38 600-14.38L600-14.38L604.56-14.88L604.56-14.88Q610.44-16.13 614-16.13ZM649.31-10.38L649.31-10.38L649.31-10.38Q644.63-3 636.81-1.25L636.81-1.25L636.81-1.25Q635-0.88 633.53-0.88L633.53-0.88L633.53-0.88Q632.06-0.88 631.09-0.91L631.09-0.91L631.09-0.91Q630.13-0.94 628.94-1.19L628.94-1.19L628.94-1.19Q627.75-1.44 626.75-2L626.75-2L626.75-2Q624.44-3.31 624.44-5.69L624.44-5.69L624.44-5.69Q624.19-6.81 624.19-8.22L624.19-8.22L624.19-8.22Q624.19-9.63 624.81-11.94L624.81-11.94L624.81-11.94Q625.44-14.25 627.09-16.94L627.09-16.94L627.09-16.94Q628.75-19.63 631.13-21.88L631.13-21.88L631.13-21.88Q636.06-26.63 641.81-28L641.81-28L641.81-28Q643.50-28.38 644.91-28.38L644.91-28.38L644.91-28.38Q646.31-28.38 647.44-28.19L647.44-28.19L647.44-28.19Q651.06-28.19 652.31-23.25L652.31-23.25L652.31-23.25Q653.13-20.13 653.28-14.53L653.28-14.53L653.28-14.53Q653.44-8.94 653.59-5.91L653.59-5.91L653.59-5.91Q653.75-2.88 654.38-0.38L654.38-0.38L650.69-0.38L650.69-0.38Q650.44-2.06 650.31-3.38L650.31-3.38L650.31-3.38Q650.19-4.69 650.06-5.81L650.06-5.81L650.06-5.81Q649.75-8.44 649.31-10.38ZM649.06-20.06L649.06-20.06L649.06-20.06Q649.06-23.69 645.50-23.69L645.50-23.69L645.50-23.69Q645.06-23.75 644.63-23.75L644.63-23.75L644.63-23.75Q640.06-23.75 635-19.38L635-19.38L635-19.38Q632.63-17.38 630.94-14.88L630.94-14.88L630.94-14.88Q628.44-11.31 628.44-8.50L628.44-8.50L628.44-8.50Q628.44-4.81 632.69-4.13L632.69-4.13L632.69-4.13Q638.31-4.25 643.44-9.25L643.44-9.25L643.44-9.25Q645.63-11.44 647.06-14L647.06-14L647.06-14Q649.06-17.44 649.06-20.06ZM689.50-27.13L670.50 23.56L670.50 23.56Q669.19 26.50 667.38 26.50L667.38 26.50L667.38 26.50Q666.50 26.50 666.09 25.72L666.09 25.72L666.09 25.72Q665.69 24.94 666.06 23.88L666.06 23.88L666.06 23.88Q667.44 18.06 670.03 10.63L670.03 10.63L670.03 10.63Q672.63 3.19 673.50 0.63L673.50 0.63L673.50 0.63Q671.31-1.56 666.63-8.13L666.63-8.13L666.63-8.13Q657-21.63 657-22.94L657-22.94L657-22.94Q657-23 657.06-23.06L657.06-23.06L659.44-25.44L659.44-25.44Q664.38-20.88 672.31-9.94L672.31-9.94L672.31-9.94Q674.31-7.19 675.50-5.31L675.50-5.31L675.50-5.31Q676.81-7.94 677.56-9.84L677.56-9.84L677.56-9.84Q678.31-11.75 678.78-12.91L678.78-12.91L678.78-12.91Q679.25-14.06 680.06-16L680.06-16L680.06-16Q682.19-21.19 685.94-29.19L685.94-29.19L685.94-29.19Q686.50-29.44 687.13-29.44L687.13-29.44L687.13-29.44Q688.69-29.44 689.38-28.63L689.38-28.63L689.38-28.63Q689.63-28.31 689.63-27.91L689.63-27.91L689.63-27.91Q689.63-27.50 689.50-27.13L689.50-27.13ZM741.81-17.25L741.81-17.25L741.81-17.25Q740.44-12.69 739.53-8.81L739.53-8.81L739.53-8.81Q738.63-4.94 737.75-2.38L737.75-2.38L737.75-2.38Q736.38 1.31 734.63 1.31L734.63 1.31L734.63 1.31Q733.69 1.31 732.50 0.44L732.50 0.44L732.50 0.44Q729.63-2.63 724.38-13.13L724.38-13.13L724.38-13.13Q719.25-23.38 719.25-25.94L719.25-25.94L719.25-25.94Q719.25-27.06 719.94-27.34L719.94-27.34L719.94-27.34Q720.63-27.63 721.50-27.38L721.50-27.38L721.50-27.38Q723.63-26.75 724.50-25.44L724.50-25.44L724.50-25.44Q724.94-24.81 725.56-23.25L725.56-23.25L727.13-19.38L727.13-19.38Q729.75-12.81 732.31-7.38L732.31-7.38L732.31-7.38Q733.69-9.50 734.94-12.88L734.94-12.88L736.88-18.25L736.88-18.25Q739.38-25.31 741.38-25.44L741.38-25.44L741.38-25.44Q742.94-26.44 750.75-14.38L750.75-14.38L750.75-14.38Q754.06-9.25 754.88-8.25L754.88-8.25L754.88-8.25Q755.44-8.25 756.22-12L756.22-12L756.22-12Q757-15.75 757.59-18.34L757.59-18.34L757.59-18.34Q758.19-20.94 759.06-23.19L759.06-23.19L759.06-23.19Q761.13-28.44 763.81-28.44L763.81-28.44L763.81-28.44Q764.69-28.44 765.03-27.84L765.03-27.84L765.03-27.84Q765.38-27.25 765.38-26.88L765.38-26.88L765.38-26.88Q765.38-26.50 765.38-26.31L765.38-26.31L765.38-26.31Q764.63-24.19 763.81-21.47L763.81-21.47L763.81-21.47Q763-18.75 762.09-15.91L762.09-15.91L762.09-15.91Q761.19-13.06 760.28-10.28L760.28-10.28L760.28-10.28Q759.38-7.50 758.50-5.25L758.50-5.25L758.50-5.25Q756.44-0.38 755.06 0L755.06 0L755.06 0Q754 0.50 751.63-2.44L751.63-2.44L751.63-2.44Q750.56-3.81 749.38-5.69L749.38-5.69L749.38-5.69Q748.19-7.56 746.88-9.56L746.88-9.56L746.88-9.56Q743.69-14.56 741.81-17.25ZM771.50-29.38L775.44-29.38L775.44-29.38Q776.25-17.69 776.81-2.31L776.81-2.31L776.81-2.31Q776.44-0.38 773.81-0.38L773.81-0.38L773.81-0.38Q773.13-0.38 772.41-0.66L772.41-0.66L772.41-0.66Q771.69-0.94 771.50-1.44L771.50-1.44L771.50-29.38ZM769.63-37.88L769.63-37.88L769.63-37.88Q769.63-40.06 772.19-40.06L772.19-40.06L772.19-40.06Q773.88-40.06 774.94-39.31L774.94-39.31L774.94-39.31Q775.13-38.63 775.13-37.97L775.13-37.97L775.13-37.97Q775.13-37.31 774.63-36.69L774.63-36.69L774.63-36.69Q774.13-36.06 773.13-36.06L773.13-36.06L773.13-36.06Q772.13-36.06 771.13-36.53L771.13-36.53L771.13-36.53Q770.13-37 769.63-37.88ZM788.94-6L788.94-6L789.06-16L789.06-16Q789.06-18.38 788.63-20.06L788.63-20.06L778.94-20.06L778.81-24.38L788.19-24.38L788.19-40.50L788.19-40.50Q788.38-41.06 788.94-41.63L788.94-41.63L788.94-41.63Q789.81-42.50 790.41-42.50L790.41-42.50L790.41-42.50Q791-42.50 791.44-42.38L791.44-42.38L791.44-42.38Q791.88-42.25 792.38-41.50L792.38-41.50L792.38-41.50Q793.38-37.38 793.38-29.06L793.38-29.06L793.38-29.06Q793.38-27 793.56-25L793.56-25L793.56-25Q795.56-25.25 797.56-25.25L797.56-25.25L797.56-25.25Q797.56-25.25 800.81-25.25L800.81-25.25L800.81-25.25Q802-25.25 803-25.38L803-25.38L802.81-20.88L793.69-21.13L794 0.44L794 0.44Q792.88 0.94 792.06 0.94L792.06 0.94L792.06 0.94Q788.94 0.94 788.94-6ZM834.75-0.88L834.75-0.88L834.75-0.88Q834.19 0.19 831.84 0.19L831.84 0.19L831.84 0.19Q829.50 0.19 829.50-1.50L829.50-1.50L829.50-1.50Q829.50-8.88 829.19-11.63L829.19-11.63L829.19-11.63Q828.63-17.69 826.81-18.13L826.81-18.13L826.81-18.13Q822.31-19 819.47-19L819.47-19L819.47-19Q816.63-19 814.78-17.28L814.78-17.28L814.78-17.28Q812.94-15.56 811.97-11.59L811.97-11.59L811.97-11.59Q811-7.63 810.56-0.44L810.56-0.44L805.75-0.44L805.75-0.44Q805.88-4 805.88-7.06L805.88-7.06L805.88-7.06Q805.88-10.13 805.75-14.34L805.75-14.34L805.75-14.34Q805.63-18.56 805.44-23.56L805.44-23.56L805.44-23.56Q805.13-29.31 805.13-33.28L805.13-33.28L805.13-33.28Q805.13-37.25 805.63-40.56L805.63-40.56L805.63-40.56Q806.25-41.75 807.44-41.75L807.44-41.75L807.44-41.75Q808.88-41.75 809.69-40.72L809.69-40.72L809.69-40.72Q810.50-39.69 810.56-38.88L810.56-38.88L810.25-28.56L810.25-28.56Q810.25-22.75 810.81-19.88L810.81-19.88L810.81-19.88Q816.44-23.63 822.44-23.63L822.44-23.63L822.44-23.63Q824.38-23.63 826.56-23.31L826.56-23.31L826.56-23.31Q831.25-20.88 832.69-18.13L832.69-18.13L832.69-18.13Q833.38-16.69 833.56-15.06L833.56-15.06L833.56-15.06Q833.75-13.44 833.81-11.38L833.81-11.38L833.81-11.38Q834.19-4.25 834.75-0.88ZM894.88-27.13L875.88 23.56L875.88 23.56Q874.56 26.50 872.75 26.50L872.75 26.50L872.75 26.50Q871.88 26.50 871.47 25.72L871.47 25.72L871.47 25.72Q871.06 24.94 871.44 23.88L871.44 23.88L871.44 23.88Q872.81 18.06 875.41 10.63L875.41 10.63L875.41 10.63Q878 3.19 878.88 0.63L878.88 0.63L878.88 0.63Q876.69-1.56 872-8.13L872-8.13L872-8.13Q862.38-21.63 862.38-22.94L862.38-22.94L862.38-22.94Q862.38-23 862.44-23.06L862.44-23.06L864.81-25.44L864.81-25.44Q869.75-20.88 877.69-9.94L877.69-9.94L877.69-9.94Q879.69-7.19 880.88-5.31L880.88-5.31L880.88-5.31Q882.19-7.94 882.94-9.84L882.94-9.84L882.94-9.84Q883.69-11.75 884.16-12.91L884.16-12.91L884.16-12.91Q884.63-14.06 885.44-16L885.44-16L885.44-16Q887.56-21.19 891.31-29.19L891.31-29.19L891.31-29.19Q891.88-29.44 892.50-29.44L892.50-29.44L892.50-29.44Q894.06-29.44 894.75-28.63L894.75-28.63L894.75-28.63Q895-28.31 895-27.91L895-27.91L895-27.91Q895-27.50 894.88-27.13L894.88-27.13ZM899.38-11.88L899.38-11.88L899.38-11.88Q899.38-19.25 905.75-23.75L905.75-23.75L905.75-23.75Q910.81-27.31 917.94-28.06L917.94-28.06L917.94-28.06Q918.31-28.06 919.69-28.06L919.69-28.06L919.69-28.06Q921.06-28.06 923.38-27.25L923.38-27.25L923.38-27.25Q928.50-25.50 930.38-21.06L930.38-21.06L930.38-21.06Q931.13-19.31 931.13-18.09L931.13-18.09L931.13-18.09Q931.13-16.88 931.06-16.38L931.06-16.38L931.06-16.38Q931.06-8.56 925.13-4.06L925.13-4.06L925.13-4.06Q919.63 0.06 911.38 0.06L911.38 0.06L911.38 0.06Q905.44 0.06 902.41-2.69L902.41-2.69L902.41-2.69Q899.38-5.44 899.38-11.88ZM903.69-10.38L903.69-10.38L903.69-10.38Q903.69-6.50 905.75-5.13L905.75-5.13L905.75-5.13Q907.31-4.13 911-4.13L911-4.13L911-4.13Q914.69-4.13 917.50-4.69L917.50-4.69L917.50-4.69Q920.31-5.25 922.50-6.63L922.50-6.63L922.50-6.63Q927.19-9.63 927.19-15.94L927.19-15.94L927.19-15.94Q927.19-19.69 925.19-22.06L925.19-22.06L925.19-22.06Q923-24.63 919.44-24.63L919.44-24.63L919.44-24.63Q917-24.19 914.53-23.69L914.53-23.69L914.53-23.69Q912.06-23.19 909.88-21.75L909.88-21.75L909.88-21.75Q905.13-18.69 903.69-10.38ZM933.50-8.31L933.50-8.31L933.50-8.31Q933.50-9.31 933.34-11.09L933.34-11.09L933.34-11.09Q933.19-12.88 933.06-15L933.06-15L933.06-15Q932.94-17.13 932.94-19.31L932.94-19.31L932.94-19.31Q932.94-21.50 933.31-23.31L933.31-23.31L933.31-23.31Q934.13-27.38 936.69-27.38L936.69-27.38L936.69-27.38Q938.44-26.88 939.03-26.13L939.03-26.13L939.03-26.13Q939.63-25.38 939.63-24.28L939.63-24.28L939.63-24.28Q939.63-23.19 939.06-21.56L939.06-21.56L939.06-21.56Q937-16.13 937-11.75L937-11.75L937-11.75Q937-10.31 937.19-8.69L937.19-8.69L937.19-8.69Q938.19-4.50 944.06-4.50L944.06-4.50L944.06-4.50Q947.13-4.50 949.88-5.56L949.88-5.56L949.88-5.56Q955.13-7.50 957-10.13L957-10.13L957-10.13Q957.56-13 957.56-15.16L957.56-15.16L957.56-15.16Q957.56-17.31 957.41-19L957.41-19L957.41-19Q957.25-20.69 957.03-22.72L957.03-22.72L957.03-22.72Q956.81-24.75 956.75-27.19L956.75-27.19L956.75-27.19Q957.56-27.56 958.34-27.56L958.34-27.56L958.34-27.56Q959.13-27.56 959.97-26.75L959.97-26.75L959.97-26.75Q960.81-25.94 961.41-23.69L961.41-23.69L961.41-23.69Q962-21.44 962.19-18.41L962.19-18.41L962.19-18.41Q962.38-15.38 962.41-12.13L962.41-12.13L962.41-12.13Q962.44-8.88 962.44-5.84L962.44-5.84L962.44-5.84Q962.44-2.81 962.69-0.63L962.69-0.63L962.69-0.63Q961.94 0.06 961.25 0.06L961.25 0.06L961.25 0.06Q958.75 0.06 957.56-4.94L957.56-4.94L957.56-4.94Q956.75-4.25 954.81-3.25L954.81-3.25L954.81-3.25Q950.69-1 945.06-0.25L945.06-0.25L945.06-0.25Q944-0.13 942.69-0.13L942.69-0.13L942.69-0.13Q941.38-0.13 939.41-0.63L939.41-0.63L939.41-0.63Q937.44-1.13 935.69-2.94L935.69-2.94L935.69-2.94Q933.94-4.75 933.50-8.31ZM995.06-7.88L995.06-7.88L995.06-7.88Q995.06-8.81 995.91-9.69L995.91-9.69L995.91-9.69Q996.75-10.56 997.81-10.56L997.81-10.56L997.81-10.56Q998.88-10.56 999.44-9.88L999.44-9.88L999.44-9.88Q1000-9.19 1000-8.41L1000-8.41L1000-8.41Q1000-7.63 999.41-6.97L999.41-6.97L999.41-6.97Q998.81-6.31 998.31-6.31L998.31-6.31L998.31-6.31Q997.81-6.31 997.41-6.31L997.41-6.31L997.41-6.31Q997-6.31 996.03-6.63L996.03-6.63L996.03-6.63Q995.06-6.94 995.06-7.88ZM993.06-19.88L993.06-19.88L993.06-19.88Q992.19-20.13 992.19-20.81L992.19-20.81L992.19-20.81Q992.19-21.75 993.13-22.38L993.13-22.38L993.13-22.38Q994.06-23 994.63-23.06L994.63-23.06L994.63-23.06Q996.56-22.81 997.09-22.09L997.09-22.09L997.09-22.09Q997.63-21.38 997.63-20.94L997.63-20.94L997.63-20.94Q997.63-19.63 996-19.25L996-19.25L996-19.25Q995.75-19.13 995.09-19.13L995.09-19.13L995.09-19.13Q994.44-19.13 993.06-19.88ZM1031.06-31.69L1031.06-31.69L1031.06-31.69Q1031.06-27.94 1025.06-22.88L1025.06-22.88L1025.06-22.88Q1023.56-21.69 1022.50-20.75L1022.50-20.75L1022.50-20.75Q1030.19-20.63 1031.69-17.13L1031.69-17.13L1031.69-17.13Q1032-16.31 1032-15.44L1032-15.44L1032-15.44Q1032-14.56 1031.53-13.09L1031.53-13.09L1031.53-13.09Q1031.06-11.63 1029.56-9.63L1029.56-9.63L1029.56-9.63Q1028.06-7.63 1025.94-5.75L1025.94-5.75L1025.94-5.75Q1021.50-1.88 1016.56-0.38L1016.56-0.38L1016.56-0.38Q1014.88 0.13 1013.84 0.13L1013.84 0.13L1013.84 0.13Q1012.81 0.13 1012.19 0.09L1012.19 0.09L1012.19 0.09Q1011.56 0.06 1010.88-0.31L1010.88-0.31L1010.88-0.31Q1010.19-0.69 1010.19-1.56L1010.19-1.56L1010.19-1.56Q1014.88-2.75 1018.44-4.94L1018.44-4.94L1018.44-4.94Q1022-7.13 1024.06-9.50L1024.06-9.50L1024.06-9.50Q1026.50-12.44 1026.50-14.38L1026.50-14.38L1026.50-14.38Q1026.50-16.31 1025.31-17L1025.31-17L1025.31-17Q1024.13-17.69 1022.25-17.69L1022.25-17.69L1022.25-17.69Q1017.50-17.69 1009.31-13.81L1009.31-13.81L1007.13-16.63L1007.13-16.63Q1026.06-25.38 1026.06-29.19L1026.06-29.19L1026.06-29.19Q1026.06-30.81 1022.50-31.31L1022.50-31.31L1022.50-31.31Q1018.81-31.31 1014.09-30.06L1014.09-30.06L1014.09-30.06Q1009.38-28.81 1006.81-28.25L1006.81-28.25L1006.81-28.25Q1004.25-27.69 1001.56-27.69L1001.56-27.69L1001.56-27.69Q1001.56-30.63 1003-31.13L1003-31.13L1003-31.13Q1005.63-31.75 1008.56-32.50L1008.56-32.50L1008.56-32.50Q1018.19-34.94 1023.97-34.94L1023.97-34.94L1023.97-34.94Q1029.75-34.94 1031.06-31.69Z" fill="url(#editing-shiny-gradient2)"></path></g></g><style>text {
  font-size: 64px;
  font-family: Arial Black;
  dominant-baseline: central;
  text-anchor: middle;
}</style></svg>